<?xml version="1.0" standalone="no"?>
<!DOCTYPE svg PUBLIC "-//W3C//DTD SVG 1.1//EN" "http://www.w3.org/Graphics/SVG/1.1/DTD/svg11.dtd" >
<svg xmlns="http://www.w3.org/2000/svg">
<metadata>Generated by IcoMoon</metadata>
<defs>
<font id="icomoon" horiz-adv-x="1024">
<font-face units-per-em="1024" ascent="960" descent="-64" />
<missing-glyph horiz-adv-x="1024" />
<glyph unicode="&#x20;" horiz-adv-x="512" d="" />
<glyph unicode="&#xe040;" glyph-name="circle-plus" d="M512 896q95.667 0 182.5-37.167t149.667-100 100-149.667 37.167-182.5-37.167-182.5-100-149.667-149.667-100-182.5-37.167-182.5 37.167-149.667 100-100 149.667-37.167 182.5 37.167 182.5 100 149.667 149.667 100 182.5 37.167zM512 810.667q-78 0-149.167-30.5t-122.5-81.833-81.833-122.5-30.5-149.167 30.5-149.167 81.833-122.5 122.5-81.833 149.167-30.5 149.167 30.5 122.5 81.833 81.833 122.5 30.5 149.167-30.5 149.167-81.833 122.5-122.5 81.833-149.167 30.5zM512 640q17.667 0 30.167-12.5t12.5-30.167v-128h128q17.667 0 30.167-12.5t12.5-30.167-12.5-30.167-30.167-12.5h-128v-128q0-17.667-12.5-30.167t-30.167-12.5-30.167 12.5-12.5 30.167v128h-128q-17.667 0-30.167 12.5t-12.5 30.167 12.5 30.167 30.167 12.5h128v128q0 17.667 12.5 30.167t30.167 12.5z" />
<glyph unicode="&#xe042;" glyph-name="circle-check" d="M512 896q95.667 0 182.5-37.167t149.667-100 100-149.667 37.167-182.5-37.167-182.5-100-149.667-149.667-100-182.5-37.167-182.5 37.167-149.667 100-100 149.667-37.167 182.5 37.167 182.5 100 149.667 149.667 100 182.5 37.167zM512 810.667q-78 0-149.167-30.5t-122.5-81.833-81.833-122.5-30.5-149.167 30.5-149.167 81.833-122.5 122.5-81.833 149.167-30.5 149.167 30.5 122.5 81.833 81.833 122.5 30.5 149.167-30.5 149.167-81.833 122.5-122.5 81.833-149.167 30.5zM655.667 555q17.667 0 30.167-12.5t12.5-30.167-12.667-30.333l-181-181q-12.333-12.333-30-12.333-18 0-30.333 12.333l-90.667 90.333q-12.333 12.333-12.333 30.333 0 17.667 12.5 30.167t30.167 12.5 30.333-12.667l60.333-60.333 150.667 151q12.667 12.667 30.333 12.667z" />
<glyph unicode="&#xe043;" glyph-name="circle-cross" d="M512 896q95.667 0 182.5-37.167t149.667-100 100-149.667 37.167-182.5-37.167-182.5-100-149.667-149.667-100-182.5-37.167-182.5 37.167-149.667 100-100 149.667-37.167 182.5 37.167 182.5 100 149.667 149.667 100 182.5 37.167zM512 810.667q-78 0-149.167-30.5t-122.5-81.833-81.833-122.5-30.5-149.167 30.5-149.167 81.833-122.5 122.5-81.833 149.167-30.5 149.167 30.5 122.5 81.833 81.833 122.5 30.5 149.167-30.5 149.167-81.833 122.5-122.5 81.833-149.167 30.5zM632.667 590.334q17.667 0 30.333-12.5t12.667-30.167-12.667-30.333l-90.667-90.667 90.667-90.333q12.667-12.667 12.667-30 0-17.667-12.667-30.167t-30.333-12.5-30 12.333l-90.667 90.333-90.333-90.333q-12.333-12.333-30.333-12.333-17.667 0-30.167 12.333t-12.5 30q0 18 12.333 30.333l90.667 90.333-90.667 90.667q-12.333 12.333-12.333 30t12.5 30.333 30.167 12.667 30.333-12.667l90.333-90.667 90.667 90.667q12.667 12.667 30 12.667z" />
<glyph unicode="&#xe046;" glyph-name="square-check" d="M170.667 896h682.667q53 0 90.5-37.5t37.5-90.5v-682.667q0-53-37.5-90.5t-90.5-37.5h-682.667q-53 0-90.5 37.5t-37.5 90.5v682.667q0 53 37.5 90.5t90.5 37.5zM853.333 810.667h-682.667q-17.667 0-30.167-12.5t-12.5-30.167v-682.667q0-17.667 12.5-30.167t30.167-12.5h682.667q17.667 0 30.167 12.5t12.5 30.167v682.667q0 17.667-12.5 30.167t-30.167 12.5zM682.667 575q17.333 0 30-12.5t12.667-30.167-12.667-30.333l-211-211q-12.333-12.333-30-12.333-18 0-30.333 12.333l-120.667 120.667q-12.333 12.333-12.333 30.333 0 17.667 12.5 30.167t30.167 12.5q17.333 0 30-12.667l90.333-90.667 181 181q12.667 12.667 30.333 12.667z" />
<glyph unicode="&#xe600;" glyph-name="about" d="M512 857.080c111.023 0 206.956-81.92 224.202-191.865 17.246 5.389 35.571 8.623 52.817 8.623 49.583 0 94.855-20.48 128.269-52.817s52.817-78.686 52.817-128.269c0-48.505-18.324-91.621-48.505-123.958l43.116-43.116c19.402-19.402 33.415-39.882 43.116-63.596s15.091-49.583 15.091-75.453v-52.817c0-14.013-4.312-29.103-12.935-40.96-8.623-12.935-21.558-21.558-38.804-23.714-1.078 0-2.156 0-3.234 0h-42.038v-14.013c0-18.324-15.091-33.415-33.415-33.415h-760.994c-18.324 0-33.415 14.013-33.415 33.415v14.013h-40.96c-1.078 0-2.156 0-4.312 0-17.246 2.156-30.181 10.779-38.804 23.714-8.623 11.857-12.935 26.947-12.935 40.96v52.817c0 26.947 5.389 51.739 15.091 75.453s24.792 44.194 43.116 63.596l43.116 43.116c-30.181 32.337-48.505 75.453-48.505 122.88 0 49.583 20.48 94.855 52.817 128.269 32.337 32.337 77.608 52.817 128.269 52.817 18.324 0 36.648-3.234 52.817-8.623 17.246 109.945 113.179 192.943 224.202 192.943v0zM614.4 87.463v0 149.827c0 10.779 8.623 20.48 19.402 20.48s19.402-8.623 19.402-20.48v-87.309h85.154c1.078 2.156 2.156 4.312 2.156 7.545v70.063c0 25.869-4.312 49.583-12.935 71.141v0 0c-5.389 12.935-12.935 24.792-21.558 37.726v0 0 0 0 0c-5.389 6.467-10.779 12.935-17.246 20.48v0l-71.141 71.141c-31.259-16.168-66.829-25.869-104.556-25.869s-73.297 9.701-104.556 25.869l-71.141-71.141c-6.467-6.467-12.935-12.935-18.324-20.48v0h-2.156c-8.623-11.857-15.091-24.792-21.558-37.726-8.623-21.558-12.935-45.272-12.935-71.141v-70.063c0-3.234 1.078-5.389 2.156-7.545h85.154v87.309c0 10.779 8.623 20.48 20.48 20.48 10.779 0 20.48-8.623 20.48-20.48v-149.827h203.722zM512 467.96v0c87.309 0 160.606 71.141 160.606 160.606 0 88.387-71.141 160.606-160.606 160.606-88.387 0-160.606-72.219-160.606-160.606 0-89.465 73.297-160.606 160.606-160.606v0zM164.918 87.463v0h95.933c-12.935 4.312-22.636 12.935-30.181 23.714-9.701 12.935-15.091 30.181-15.091 47.427v70.063c0 30.181 4.312 58.206 14.013 84.076-25.869 1.078-51.739 7.545-74.375 18.324l-49.583-49.583c-12.935-14.013-22.636-26.947-29.103-43.116v0c-6.467-15.091-9.701-32.337-9.701-50.661v-51.739h57.128v58.206c0 10.779 9.701 20.48 20.48 20.48s19.402-8.623 19.402-20.48v-106.712h1.078zM287.798 592.996v0c-5.389 3.234-12.935 5.389-19.402 8.623-10.779 3.234-21.558 5.389-34.493 5.389-31.259 0-60.362-12.935-80.842-33.415s-33.415-49.583-33.415-80.842c0-31.259 12.935-60.362 33.415-80.842v0c21.558-20.48 49.583-33.415 80.842-33.415 7.545 0 16.168 1.078 22.636 2.156 4.312 1.078 9.701 2.156 14.013 4.312 5.389 6.467 11.857 14.013 18.324 20.48l63.596 63.596-2.156 1.078c-30.181 31.259-49.583 67.907-60.362 109.945 0 3.234-1.078 7.545-2.156 10.779v2.156zM859.082 87.463v0 105.634c0 10.779 8.623 20.48 20.48 20.48 10.779 0 19.402-8.623 19.402-20.48v-58.206h58.206v51.739c0 18.324-3.234 34.493-9.701 50.661v0 0c-6.467 15.091-16.168 29.103-29.103 43.116l-50.661 49.583c-21.558-10.779-47.427-17.246-74.375-18.324 9.701-25.869 14.013-53.895 14.013-84.076v-70.063c0-16.168-5.389-33.415-14.013-47.427-7.545-10.779-18.324-19.402-30.181-23.714h95.933v1.078zM736.202 592.996v0-4.312c-8.623-45.272-30.181-87.309-62.518-120.724v0 0l-1.078-1.078 63.596-63.596c7.545-6.467 12.935-12.935 18.324-20.48 4.312-1.078 8.623-2.156 14.013-4.312v0 0c6.467-1.078 15.091-2.156 22.636-2.156 31.259 0 60.362 12.935 80.842 33.415s33.415 49.583 33.415 80.842c0 31.259-12.935 60.362-33.415 80.842s-49.583 33.415-80.842 33.415c-11.857 0-23.714-2.156-34.493-5.389-7.545 0-14.013-3.234-20.48-6.467v0z" />
<glyph unicode="&#xe601;" glyph-name="address" d="M971.183 715.318c3.234-6.467 6.467-14.013 8.623-20.48 4.312-12.935 5.389-26.947 5.389-39.882v-580.985c0-36.648-15.091-71.141-39.882-95.933s-59.284-39.882-95.933-39.882h-674.762c-37.726 0-71.141 15.091-95.933 39.882s-39.882 58.206-39.882 95.933v580.985c0 36.648 15.091 71.141 39.882 95.933s58.206 39.882 95.933 39.882h327.68c11.857 37.726 32.337 71.141 59.284 97.011l1.078 1.078c43.116 42.038 102.4 68.985 168.152 68.985s126.114-26.947 169.229-70.063v0c43.116-43.116 70.063-103.478 70.063-168.152v-4.312h1.078zM730.813 833.886v0c32.337 0 61.44-12.935 82.998-34.493s34.493-50.661 34.493-82.998c0-32.337-12.935-61.44-34.493-82.998s-50.661-34.493-82.998-34.493c-32.337 0-61.44 12.935-82.998 34.493-21.558 20.48-34.493 50.661-34.493 82.998s12.935 61.44 34.493 82.998c21.558 21.558 51.739 34.493 82.998 34.493v0zM783.629 769.213v0c-12.935 12.935-32.337 21.558-51.739 21.558-20.48 0-38.804-8.623-51.739-21.558s-21.558-31.259-21.558-51.739c0-20.48 8.623-38.804 21.558-51.739s31.259-21.558 51.739-21.558c20.48 0 38.804 8.623 51.739 21.558s21.558 31.259 21.558 51.739c0 20.48-8.623 37.726-21.558 51.739v0zM492.598 717.474v0h-317.979c-17.246 0-33.415-6.467-44.194-18.324-11.857-10.779-18.324-26.947-18.324-44.194v-580.985c0-17.246 7.545-32.337 18.324-44.194 11.857-11.857 26.947-18.324 44.194-18.324h674.762c17.246 0 33.415 7.545 44.194 18.324 11.857 11.857 18.324 26.947 18.324 44.194v488.286c-24.792-28.025-56.051-50.661-91.621-65.752l-73.297-89.465c-7.545-9.701-21.558-10.779-30.181-3.234-1.078 1.078-2.156 2.156-3.234 3.234v0 0l-72.219 89.465c-43.116 18.324-80.842 47.427-106.712 86.232-26.947 38.804-42.038 85.154-42.038 134.737v0zM869.861 856.522v0c-35.571 35.571-84.076 57.128-137.971 57.128-52.817 0-102.4-21.558-136.893-56.051l-2.156-1.078c-35.571-35.571-57.128-85.154-57.128-137.971 0-42.038 12.935-79.764 34.493-111.023 22.636-33.415 54.973-58.206 91.621-72.219 4.312-1.078 6.467-3.234 9.701-6.467l59.284-73.297 60.362 73.297c2.156 3.234 5.389 5.389 8.623 6.467 37.726 14.013 70.063 38.804 91.621 72.219 22.636 31.259 35.571 70.063 35.571 111.023 0 53.895-21.558 102.4-57.128 137.971v0 0 0zM583.141 442.611v0c8.623 8.623 22.636 8.623 30.181 0 8.623-8.623 8.623-22.636 0-31.259l-60.362-60.362 126.114-123.958 139.048 139.048c8.623 8.623 22.636 8.623 30.181 0 8.623-8.623 8.623-22.636 0-30.181l-139.048-140.126 46.349-46.349c8.623-8.623 8.623-22.636 0-31.259s-22.636-8.623-31.259 0l-60.362 61.44h-1.078l-139.048 141.204-251.149-250.072c-8.623-8.623-22.636-8.623-31.259 0s-8.623 22.636 0 30.181l251.149 251.149-103.478 103.478-167.074-168.152c-8.623-8.623-22.636-8.623-31.259 0s-8.623 22.636 0 31.259l168.152 167.074-106.712 105.634c-8.623 8.623-8.623 22.636 0 31.259s22.636 8.623 31.259 0l239.293-239.293 60.362 59.284z" />
<glyph unicode="&#xe602;" glyph-name="adress-1" d="M829.44 826.88c-81.92 81.92-194.56 133.12-317.44 133.12s-235.52-51.2-317.44-133.12c-81.92-81.92-133.12-194.56-133.12-317.44 0-92.16 30.72-180.907 78.507-252.587s119.467-129.707 201.387-163.84l143.36-146.773c17.067-13.653 40.96-13.653 54.613 0l143.36 146.773c81.92 34.133 150.187 88.747 201.387 163.84 47.787 71.68 78.507 160.427 78.507 252.587 0 126.293-51.2 235.52-133.12 317.44v0zM819.2 301.227v0c-40.96-61.44-102.4-109.227-170.667-136.533-3.413-3.413-10.24-6.827-13.653-10.24l-122.88-122.88-119.467 122.88c-3.413 3.413-10.24 6.827-13.653 10.24-68.267 27.307-129.707 75.093-170.667 136.533-40.96 58.027-64.853 133.12-64.853 208.213 0 102.4 40.96 194.56 109.227 262.827s160.427 109.227 262.827 109.227 194.56-40.96 262.827-109.227c68.267-68.267 109.227-160.427 109.227-262.827-3.413-78.507-27.307-150.187-68.267-208.213v0zM512 772.267v0c-71.68 0-136.533-30.72-184.32-78.507s-78.507-112.64-78.507-184.32c0-71.68 27.307-136.533 75.093-184.32v0c47.787-47.787 112.64-78.507 184.32-78.507s139.947 30.72 184.32 78.507v0c47.787 47.787 78.507 112.64 78.507 184.32s-30.72 139.947-78.507 184.32c-40.96 47.787-109.227 78.507-180.907 78.507v0zM665.6 355.84v0c-37.547-37.547-92.16-64.853-153.6-64.853s-112.64 23.893-153.6 64.853v0c-37.547 37.547-61.44 92.16-61.44 150.187s23.893 112.64 64.853 153.6c37.547 37.547 92.16 64.853 153.6 64.853 58.027 0 112.64-23.893 153.6-64.853 37.547-37.547 61.44-92.16 61.44-153.6-3.413-54.613-27.307-109.227-64.853-150.187v0z" />
<glyph unicode="&#xe603;" glyph-name="box" d="M529.067 898.56l372.053-184.32c6.827-3.413 10.24-10.24 13.653-13.653l102.4-184.32c10.24-17.067 3.413-37.547-13.653-47.787 0 0-3.413 0-3.413-3.413l-81.92-40.96v-208.213c0-13.653-10.24-27.307-23.893-34.133l-368.64-184.32c-10.24-3.413-20.48-3.413-30.72 0v0l-372.053 187.733c-10.24 6.827-20.48 17.067-20.48 30.72v0 208.213l-85.333 40.96c-17.067 6.827-23.893 30.72-17.067 47.787v0 0l102.4 184.32c3.413 6.827 10.24 13.653 17.067 17.067l368.64 184.32c17.067 3.413 30.72 3.413 40.96 0v0zM491.52 79.36v0 334.507l-58.027-102.4c-6.827-10.24-17.067-13.653-27.307-6.827v0l-228.693 116.053v-180.907l314.027-160.427zM491.52 529.92v0 286.72l-290.133-143.36 290.133-143.36zM532.48 816.64v0-290.133l290.133 143.36-290.133 146.773zM532.48 413.867v0-334.507l317.44 160.427v180.907l-228.693-116.053c-10.24-6.827-23.893-3.413-27.307 6.827l-61.44 102.4zM863.573 645.973v0l-320.853-160.427 75.093-136.533 320.853 160.427-75.093 136.533zM157.013 475.307v0l249.173-122.88 75.093 136.533-320.853 157.013-75.093-136.533 68.267-34.133c0 0 3.413 0 3.413 0v0z" />
<glyph unicode="&#xe604;" glyph-name="edit2" d="M1003.52 930.377c-12.935 14.013-30.181 20.48-47.427 20.48s-34.493-6.467-47.427-19.402l-196.177-196.177v36.648h-711.411v-845.069h845.069v711.411h-40.96l198.333 198.333c25.869 25.869 25.869 67.907 0 93.777zM801.954-27.871h-756.682v755.604h659.672l-348.16-348.16v-97.011h92.699l352.472 352.472v-662.905zM971.183 867.859l-540.025-540.025h-30.181v33.415l538.947 538.947c5.389 5.389 11.857 6.467 16.168 6.467 3.234 0 9.701-1.078 16.168-6.467 5.389-5.389 6.467-11.857 6.467-16.168s-1.078-9.701-7.545-16.168v0z" />
<glyph unicode="&#xe605;" glyph-name="box2" d="M529.067 889.417l372.053-184.32c6.827-3.413 10.24-10.24 13.653-13.653l102.4-184.32c10.24-17.067 3.413-37.547-13.653-47.787 0 0-3.413 0-3.413-3.413l-81.92-40.96v-208.213c0-13.653-10.24-27.307-23.893-34.133l-368.64-184.32c-10.24-3.413-20.48-3.413-30.72 0v0l-372.053 187.733c-10.24 6.827-20.48 17.067-20.48 30.72v0 208.213l-85.333 40.96c-17.067 6.827-23.893 30.72-17.067 47.787v0 0l102.4 184.32c3.413 6.827 10.24 13.653 17.067 17.067l368.64 184.32c17.067 3.413 30.72 3.413 40.96 0v0zM491.52 70.217v0 334.507l-58.027-102.4c-6.827-10.24-17.067-13.653-27.307-6.827v0l-228.693 116.053v-180.907l314.027-160.427zM491.52 520.777v0 286.72l-290.133-143.36 290.133-143.36zM532.48 807.497v0-290.133l290.133 143.36-290.133 146.773zM532.48 404.724v0-334.507l317.44 160.427v180.907l-228.693-116.053c-10.24-6.827-23.893-3.413-27.307 6.827l-61.44 102.4zM863.573 636.83v0l-320.853-160.427 75.093-136.533 320.853 160.427-75.093 136.533zM157.013 466.164v0l249.173-122.88 75.093 136.533-320.853 157.013-75.093-136.533 68.267-34.133c0 0 3.413 0 3.413 0v0z" />
<glyph unicode="&#xe606;" glyph-name="alipay" d="M693.999 268.39c-13.21 5.973-26.044 11.913-38.571 17.886-1.809-1.741-3.584-3.413-5.393-4.949-2.287-1.98-4.54-4.062-6.827-6.315-40.926-38.229-80.247-68.437-117.999-90.556-37.751-22.153-71.578-33.109-101.581-32.973-18.091 0.102-36.181 2.048-54.272 5.803-18.091 3.789-34.577 10.069-49.527 18.944-2.594 1.536-5.086 3.174-7.509 4.915-4.164-0.273-8.021-0.512-11.605-0.649-1.092-0.512-2.423-0.785-4.028-0.785h-12.868c-29.559 0.171-57.378 3.789-83.422 10.923-26.044 7.1-48.708 17.545-67.994 31.334s-34.509 31.027-45.705 51.712c-11.162 20.685-16.691 44.715-16.555 72.055 0.649 23.586 7.236 44.988 19.695 64.239s28.535 35.499 48.265 48.811c19.695 13.312 41.54 23.381 65.502 30.208s48.026 9.66 72.226 8.465c23.654-1.195 46.49-4.13 68.506-8.806s43.076-10.274 63.215-16.828c20.139-6.554 39.185-13.619 57.139-21.231 17.988-7.612 35.021-14.95 51.098-21.982 6.451-2.697 13.141-5.427 20.105-8.158s14.199-5.427 21.743-8.158c15.701 19.763 28.979 39.117 39.834 58.095s19.831 36.352 26.897 52.122c7.066 15.77 12.527 29.013 16.35 39.731 3.823 10.684 6.281 18.193 7.373 22.494l-349.969 1.877 0.205 38.605 165.308-0.887 0.478 89.259-229.82 1.229 0.205 38.605 229.854-1.229 0.375 72.397c0.034 4.813 2.731 8.704 8.124 11.605 5.393 2.935 11.571 4.915 18.569 5.939 8.055 1.57 17.203 2.321 27.443 2.253l62.089-0.341-0.512-92.501 236.271-1.263-0.205-38.605-236.237 1.297-0.478-89.259 187.767-1.024c0.034 0.273 0.102 0.546 0.137 0.785v-0.785h-0.137c-3.891-23.859-10.445-49.050-19.627-75.503-7.646-23.006-18.944-49.22-33.894-78.643s-34.611-59.597-58.948-90.556c23.074-7.646 47.104-15.258 72.055-22.903 17.92-5.495 36.079-10.991 54.409-16.452 7.202-2.15 14.404-4.301 21.675-6.451 22.46-6.724 102.605-17.954 163.567-26.453 4.164 15.906 6.246 31.846 6.246 47.821v512.58l-27.648 5.53-432.469 79.292-424.141-79.292-37.786-5.53v-512.649c0-30.72 7.987-61.338 23.962-91.75s36.898-59.938 62.703-88.508c25.805-28.57 55.159-55.637 88.064-81.135 32.87-25.498 66.389-48.265 100.489-68.233s67.004-36.591 98.645-49.801c31.676-13.21 59.46-22.289 83.456-27.204l10.138-1.843 11.059 1.843c23.347 4.915 50.551 13.995 81.613 27.204 31.027 13.21 63.010 29.798 95.881 49.801 32.905 19.968 65.297 42.735 97.28 68.233 31.949 25.498 60.382 52.565 85.299 81.135 2.355 2.731 4.676 5.461 6.963 8.192-75.947 31.437-178.449 76.083-202.547 86.972zM423.151 173.602c24.166 7.509 50.893 19.115 80.179 34.782 29.286 15.701 60.757 37.308 94.379 64.853 5.12 4.506 10.138 8.704 14.95 12.663 4.847 3.925 9.557 8.158 14.097 12.663 19.695-10.308 40.38-20.617 62.020-30.925 0.512 0.478 0.99 0.956 1.502 1.434-17.271 9.66-34.202 18.534-50.893 26.692-16.657 8.158-33.655 16.145-50.893 23.996-19.046 7.851-34.236 14.199-45.568 19.046s-22.050 8.772-32.154 11.81c-14.302 3.072-29.969 5.837-46.967 8.294-16.998 2.492-34.748 3.789-53.248 3.857h-1.809c-14.95-2.901-29.867-6.861-44.817-11.844s-28.57-11.776-40.858-20.378c-12.288-8.602-22.187-19.422-29.73-32.529s-11.332-28.877-11.435-47.377c-0.137-24.474 4.676-44.783 14.438-60.962 8.055-13.346 18.193-24.371 30.379-33.075 9.489 0.649 20.48 1.604 32.905 2.901 18.193 1.911 39.356 6.588 63.522 14.097z" />
<glyph unicode="&#xe607;" glyph-name="charge" d="M873.095 809.095v0c-92.699 92.699-219.891 149.827-361.095 149.827-140.126 0-268.396-57.128-360.017-149.827h-1.078c-92.699-91.621-149.827-219.891-149.827-361.095 0-140.126 57.128-268.396 149.827-360.017v0c92.699-92.699 219.891-149.827 361.095-149.827s268.396 57.128 361.095 149.827v0c92.699 91.621 149.827 219.891 149.827 360.017 0 141.204-57.128 269.474-149.827 361.095v0zM817.044 142.956v0 0c-77.608-78.686-186.476-127.192-306.122-127.192s-227.436 48.505-305.044 126.114h-1.078c-76.531 78.686-125.036 186.476-125.036 306.122s48.505 228.514 126.114 306.122h1.078c77.608 77.608 185.398 126.114 305.044 126.114s227.436-48.505 306.122-126.114v0c78.686-77.608 127.192-186.476 127.192-306.122-1.078-119.646-49.583-227.436-128.269-305.044v0zM576.674 630.164v0c19.402 0 35.571-16.168 35.571-35.571 0-12.935 10.779-23.714 23.714-23.714s23.714 10.779 23.714 23.714c0 45.272-37.726 82.998-82.998 82.998h-40.96v38.804c0 12.935-10.779 23.714-23.714 23.714s-23.714-10.779-23.714-23.714v-38.804h-40.96c-45.272 0-82.998-37.726-82.998-82.998v-84.076c0-22.636 9.701-44.194 23.714-58.206 15.091-15.091 35.571-24.792 58.206-24.792h40.96v-162.762h-40.96c-9.701 0-18.324 4.312-24.792 10.779v0c-6.467 6.467-9.701 15.091-9.701 24.792 0 12.935-10.779 23.714-23.714 23.714s-23.714-10.779-23.714-23.714c0-22.636 9.701-43.116 23.714-58.206v0c15.091-14.013 35.571-24.792 58.206-24.792h40.96v-38.804c0-12.935 10.779-22.636 23.714-22.636s23.714 10.779 23.714 22.636v38.804h40.96c46.349 0 82.998 36.648 82.998 82.998v90.543c0 22.636-9.701 43.116-24.792 58.206s-35.571 24.792-58.206 24.792h-40.96v156.295h42.038zM488.286 474.947v0h-40.96c-9.701 0-18.324 4.312-24.792 9.701-6.467 6.467-9.701 15.091-9.701 25.869v84.076c0 19.402 15.091 35.571 35.571 35.571h40.96v-155.217h-1.078zM576.674 428.598v0c9.701 0 18.324-4.312 25.869-10.779 6.467-6.467 9.701-15.091 9.701-25.869v-90.543c0-19.402-15.091-35.571-35.571-35.571h-40.96v162.762h40.96z" />
<glyph unicode="&#xe608;" glyph-name="order-1" d="M911.36 790.43h-105.813v20.48c0 13.653-10.24 23.893-23.893 23.893h-122.88c-6.827 27.307-20.48 51.2-40.96 71.68-27.307 27.307-64.853 44.373-105.813 44.373s-78.507-17.067-105.813-44.373c-20.48-20.48-34.133-44.373-40.96-71.68h-122.88c-13.653 0-23.893-10.24-23.893-23.893v-20.48h-105.813c-20.48 0-37.547-17.067-37.547-37.547v-788.48c0-20.48 17.067-37.547 37.547-37.547h798.72c20.48 0 37.547 17.067 37.547 37.547v788.48c0 20.48-17.067 37.547-37.547 37.547v0zM436.907 872.35v0c20.48 20.48 44.373 30.72 75.093 30.72 27.307 0 54.613-10.24 75.093-30.72 10.24-10.24 20.48-23.893 23.893-37.547h-197.973c6.827 13.653 13.653 27.307 23.893 37.547v0zM266.24 790.43v0h494.933v-71.68h-494.933v71.68zM873.813 5.364v0h-723.627v709.973h68.267v-20.48c0-13.653 10.24-23.893 23.893-23.893h539.307c13.653 0 23.893 10.24 23.893 23.893v20.48h68.267v-709.973zM286.72 384.244v0c-20.48 0-37.547-17.067-37.547-37.547s17.067-37.547 37.547-37.547 37.547 17.067 37.547 37.547c0 20.48-17.067 37.547-37.547 37.547v0zM286.72 223.817v0c-20.48 0-37.547-17.067-37.547-37.547s17.067-37.547 37.547-37.547 37.547 17.067 37.547 37.547c0 20.48-17.067 37.547-37.547 37.547v0zM737.28 531.017v0h-334.507c-13.653 0-23.893-10.24-23.893-23.893s10.24-23.893 23.893-23.893h334.507c13.653 0 23.893 10.24 23.893 23.893-3.413 13.653-13.653 23.893-23.893 23.893v0zM286.72 548.084v0c-20.48 0-37.547-17.067-37.547-37.547s17.067-37.547 37.547-37.547 37.547 17.067 37.547 37.547c0 20.48-17.067 37.547-37.547 37.547v0zM737.28 206.75v0h-334.507c-13.653 0-23.893-10.24-23.893-23.893s10.24-23.893 23.893-23.893h334.507c13.653 0 23.893 10.24 23.893 23.893-3.413 13.653-13.653 23.893-23.893 23.893v0zM737.28 370.59v0h-334.507c-13.653 0-23.893-10.24-23.893-23.893s10.24-23.893 23.893-23.893h334.507c13.653 0 23.893 10.24 23.893 23.893-3.413 13.653-13.653 23.893-23.893 23.893v0z" />
<glyph unicode="&#xe609;" glyph-name="order-2" d="M40.96 889.417v0h942.080c20.48 0 40.96-17.067 40.96-40.96v0-822.613c0-20.48-17.067-40.96-40.96-40.96v0h-942.080c-20.48 0-40.96 17.067-40.96 40.96v0 218.453c0 13.653 13.653 23.893 23.893 23.893h187.733c13.653 0 23.893-10.24 23.893-23.893v-54.613l143.36 143.36-143.36 143.36v-54.613c0-13.653-10.24-23.893-23.893-23.893h-187.733c-13.653 0-23.893 10.24-23.893 23.893v0 430.080c0 20.48 20.48 37.547 40.96 37.547v0zM78.507 223.817v0-157.013h863.573v535.893h-863.573v-157.013h109.227v88.747c0 13.653 10.24 23.893 23.893 23.893 6.827 0 13.653-3.413 17.067-6.827v0l201.387-201.387c10.24-10.24 10.24-23.893 0-34.133l-201.387-201.387c-10.24-10.24-23.893-10.24-34.133 0-3.413 3.413-6.827 10.24-6.827 17.067v88.747h-109.227v3.413zM856.747 513.95v0c13.653 0 23.893-10.24 23.893-23.893s-10.24-23.893-23.893-23.893h-334.507c-13.653 0-23.893 10.24-23.893 23.893s10.24 23.893 23.893 23.893h334.507zM761.173 203.337v0c13.653 0 23.893-10.24 23.893-23.893s-10.24-23.893-23.893-23.893h-238.933c-13.653 0-23.893 10.24-23.893 23.893s10.24 23.893 23.893 23.893h238.933zM856.747 408.137v0c13.653 0 23.893-10.24 23.893-23.893s-10.24-23.893-23.893-23.893h-334.507c-13.653 0-23.893 10.24-23.893 23.893s10.24 23.893 23.893 23.893h334.507zM856.747 305.737v0c13.653 0 23.893-10.24 23.893-23.893s-10.24-23.893-23.893-23.893h-334.507c-13.653 0-23.893 10.24-23.893 23.893s10.24 23.893 23.893 23.893h334.507zM880.64 769.95v0c20.48 0 40.96-17.067 40.96-40.96 0-20.48-17.067-40.96-40.96-40.96-20.48 0-37.547 17.067-37.547 40.96s17.067 40.96 37.547 40.96v0zM785.067 769.95v0c20.48 0 37.547-17.067 37.547-40.96 0-20.48-17.067-40.96-37.547-40.96s-40.96 17.067-40.96 40.96c3.413 23.893 20.48 40.96 40.96 40.96v0zM689.493 769.95v0c20.48 0 40.96-17.067 40.96-40.96 0-20.48-17.067-40.96-40.96-40.96-20.48 0-40.96 17.067-40.96 40.96 3.413 23.893 20.48 40.96 40.96 40.96v0zM78.507 650.484v0h863.573v160.427h-863.573v-160.427z" />
<glyph unicode="&#xe60a;" glyph-name="set" d="M969.387 544.67l-98.987 20.48c-3.413 13.653-10.24 27.307-17.067 40.96l54.613 81.92c20.48 23.893 17.067 58.027-3.413 81.92l-61.44 61.44c-13.653 10.24-30.72 17.067-47.787 17.067-13.653 0-23.893-3.413-34.133-10.24l-81.92-54.613c-13.653 6.827-27.307 13.653-40.96 17.067l-20.48 98.987c-6.827 30.72-30.72 51.2-61.44 51.2h-85.333c-30.72 0-58.027-20.48-61.44-51.2l-20.48-98.987c-13.653-3.413-27.307-10.24-40.96-17.067l-85.333 54.613c-10.24 6.827-23.893 10.24-34.133 10.24-17.067 0-34.133-6.827-44.373-17.067l-64.853-61.44c-20.48-23.893-23.893-58.027-6.827-81.92l54.613-81.92c-6.827-13.653-13.653-27.307-17.067-40.96l-98.987-20.48c-30.72-6.827-51.2-30.72-51.2-61.44v-85.333c0-30.72 20.48-58.027 51.2-61.44l98.987-20.48c3.413-13.653 10.24-27.307 17.067-40.96l-54.613-81.92c-17.067-27.307-13.653-61.44 6.827-85.333l61.44-61.44c13.653-10.24 30.72-17.067 47.787-17.067 13.653 0 23.893 3.413 34.133 10.24l81.92 54.613c13.653-6.827 27.307-13.653 40.96-17.067l20.48-98.987c6.827-30.72 30.72-51.2 61.44-51.2h85.333c30.72 0 58.027 20.48 61.44 51.2l20.48 98.987c13.653 3.413 27.307 10.24 40.96 17.067l81.92-54.613c10.24-6.827 23.893-10.24 34.133-10.24 17.067 0 34.133 6.827 44.373 17.067l61.44 61.44c20.48 20.48 23.893 54.613 6.827 81.92l-54.613 81.92c6.827 13.653 13.653 27.307 17.067 40.96l98.987 20.48c30.72 6.827 51.2 30.72 51.2 61.44v85.333c3.413 34.133-17.067 58.027-47.787 64.853zM860.16 377.417c-20.48-3.413-40.96-20.48-47.787-40.96-3.413-10.24-10.24-23.893-13.653-34.133-10.24-20.48-6.827-44.373 3.413-64.853l54.613-81.92-61.44-61.44-81.92 54.613c-10.24 6.827-23.893 10.24-34.133 10.24s-20.48-3.413-27.307-6.827c-10.24-6.827-23.893-10.24-34.133-13.653-20.48-6.827-37.547-23.893-40.96-47.787l-20.48-98.987h-85.333l-20.48 98.987c-3.413 20.48-20.48 40.96-40.96 47.787-10.24 3.413-23.893 10.24-34.133 13.653s-17.067 6.827-27.307 6.827c-13.653 0-23.893-3.413-34.133-10.24l-81.92-54.613-61.44 61.44 54.613 81.92c13.653 20.48 13.653 44.373 3.413 61.44-6.827 10.24-10.24 23.893-13.653 34.133-10.24 23.893-30.72 37.547-51.2 44.373l-98.987 20.48v85.333l98.987 20.48c20.48 3.413 40.96 17.067 47.787 40.96 3.413 10.24 10.24 23.893 13.653 34.133 10.24 20.48 6.827 44.373-3.413 61.44l-54.613 81.92 61.44 61.44 81.92-54.613c10.24-6.827 23.893-10.24 34.133-10.24s20.48 3.413 27.307 6.827c10.24 6.827 23.893 10.24 34.133 13.653 23.893 6.827 37.547 27.307 44.373 47.787l20.48 98.987h85.333l20.48-98.987c3.413-20.48 17.067-40.96 40.96-47.787 10.24-3.413 23.893-10.24 34.133-13.653s17.067-6.827 27.307-6.827c13.653 0 23.893 3.413 34.133 10.24l81.92 54.613 61.44-61.44-54.613-81.92c-13.653-20.48-13.653-44.373-3.413-61.44 6.827-10.24 10.24-23.893 13.653-34.133 6.827-20.48 23.893-37.547 47.787-40.96l98.987-20.48v-85.333l-98.987-20.48zM512 660.724c-122.88 0-221.867-98.987-221.867-221.867s98.987-221.867 221.867-221.867 221.867 98.987 221.867 221.867-98.987 221.867-221.867 221.867zM512 244.297c-109.227 0-194.56 88.747-194.56 194.56 0 109.227 88.747 194.56 194.56 194.56 109.227 0 194.56-88.747 194.56-194.56 0-109.227-85.333-194.56-194.56-194.56zM512 565.15c-71.68 0-126.293-58.027-126.293-126.293 0-71.68 58.027-126.293 126.293-126.293 71.68 0 126.293 58.027 126.293 126.293s-54.613 126.293-126.293 126.293zM512 343.284c-51.2 0-95.573 44.373-95.573 95.573s44.373 95.573 95.573 95.573 95.573-44.373 95.573-95.573-44.373-95.573-95.573-95.573z" />
<glyph unicode="&#xe60b;" glyph-name="cart_1" d="M40.96 578.804h713.387l75.093 279.893c3.413 17.067 20.48 30.72 40.96 30.72h116.053c20.48 0 40.96-17.067 40.96-40.96 0-20.48-17.067-40.96-40.96-40.96h-85.333l-184.32-672.427c13.653-3.413 27.307-13.653 37.547-23.893 17.067-17.067 30.72-44.373 30.72-71.68s-10.24-54.613-30.72-71.68h-3.413c-17.067-17.067-44.373-27.307-71.68-27.307s-54.613 10.24-71.68 30.72c-17.067 17.067-30.72 44.373-30.72 71.68 0 20.48 6.827 37.547 17.067 54.613h-303.787c10.24-17.067 17.067-34.133 17.067-54.613 0-27.307-10.24-54.613-30.72-71.68s-44.373-30.72-71.68-30.72c-27.307 0-54.613 10.24-71.68 30.72v0c-17.067 17.067-30.72 44.373-30.72 71.68 0 20.48 6.827 37.547 17.067 54.613-20.48 3.413-34.133 20.48-34.133 40.96s17.067 40.96 40.96 40.96h522.24l27.307 98.987h-576.853c-20.48 0-37.547 13.653-40.96 34.133l-58.027 215.040c-6.827 20.48 6.827 44.373 27.307 47.787 6.827 3.413 10.24 3.413 13.653 3.413v0 0zM413.013 633.417v0 0 0 0 0 0 0 0 0 0h3.413l146.773 146.773c10.24 10.24 10.24 23.893 0 34.133s-23.893 10.24-34.133 0l-109.227-109.227v211.627c0 13.653-10.24 23.893-23.893 23.893s-23.893-10.24-23.893-23.893v-201.387l-92.16 109.227c-10.24 10.24-23.893 10.24-34.133 0s-10.24-23.893 0-34.133l146.773-146.773h20.48v-10.24zM679.253 94.11v0c0 0-3.413 0-3.413 0v0 0c-13.653-3.413-23.893-6.827-34.133-17.067s-17.067-23.893-17.067-37.547c0-17.067 6.827-30.72 17.067-40.96s23.893-17.067 37.547-17.067c13.653 0 27.307 3.413 37.547 13.653v0c10.24 10.24 17.067 23.893 17.067 40.96 0 13.653-6.827 27.307-17.067 37.547v0c-6.827 13.653-20.48 20.48-37.547 20.48v0 0zM211.627 94.11v0h-13.653c-13.653-3.413-23.893-6.827-30.72-13.653v0c-10.24-10.24-17.067-23.893-17.067-37.547 0-17.067 6.827-30.72 17.067-40.96s23.893-17.067 37.547-17.067c13.653 0 30.72 6.827 37.547 17.067 10.24 10.24 17.067 23.893 17.067 40.96 0 13.653-6.827 27.307-17.067 37.547-6.827 6.827-20.48 10.24-30.72 13.653v0zM730.453 500.297v0h-638.293l37.547-146.773h563.2l37.547 146.773z" />
<glyph unicode="&#xe60c;" glyph-name="delete" d="M900.042 836.042h-204.8v40.96c0 45.272-36.648 81.92-81.92 81.92h-203.722c-45.272 0-81.92-36.648-81.92-81.92v-40.96h-203.722v-40.96h42.038l40.96-775.006c0-45.272 36.648-81.92 81.92-81.92h448.404c45.272 0 81.92 36.648 81.92 81.92l39.882 775.006h39.882l1.078 40.96zM368.64 877.002c0 21.558 18.324 39.882 40.96 39.882h204.8c22.636 0 40.96-18.324 40.96-40.96v-40.96h-286.72v42.038zM778.24 21.154v0-2.156c0-22.636-18.324-40.96-40.96-40.96h-448.404c-22.636 0-40.96 18.324-40.96 40.96v2.156l-40.96 772.851h611.166c0 1.078-39.882-772.851-39.882-772.851zM491.52 713.162h40.96v-653.204h-40.96c0 0 0 653.204 0 653.204zM410.678 62.114l-42.038 652.126-40.96-2.156 42.038-652.126 40.96 2.156zM696.32 712.084l-40.96 2.156-40.96-652.126 40.96-2.156 40.96 652.126z" />
<glyph unicode="&#xe60d;" glyph-name="cart" d="M508.587 561.737h95.573v143.36h146.773v98.987h-146.773v146.773h-95.573v-146.773h-146.773v-95.573h146.773v-146.773zM314.027 121.417c-54.613 0-95.573-44.373-95.573-95.573 0-54.613 44.373-95.573 95.573-95.573s95.573 44.373 95.573 95.573c0 54.613-40.96 95.573-95.573 95.573zM798.72 121.417c-54.613 0-95.573-44.373-95.573-95.573 0-54.613 44.373-95.573 95.573-95.573s95.573 44.373 95.573 95.573c3.413 54.613-40.96 95.573-95.573 95.573zM320.853 281.844c0 3.413 0 3.413 0 6.827l44.373 78.507h361.813c37.547 0 68.267 20.48 85.333 51.2l187.733 341.333-85.333 47.787-54.613-95.573-133.12-242.347h-341.333l-6.827 13.653-153.6 320.853-44.373 95.573h-160.427v-95.573h95.573l174.080-368.64-64.853-119.467c-3.413-13.653-10.24-30.72-10.24-47.787 0-54.613 44.373-95.573 95.573-95.573h583.68v95.573h-559.787c-6.827 0-13.653 6.827-13.653 13.653v0z" />
<glyph unicode="&#xe60e;" glyph-name="shop" d="M788.48 374.004c0 13.653 10.24 23.893 23.893 23.893s23.893-10.24 23.893-23.893v-143.36c0-13.653-10.24-23.893-23.893-23.893v0h-232.107c-13.653 0-23.893 10.24-23.893 23.893v0 143.36c0 13.653 10.24 23.893 23.893 23.893s23.893-10.24 23.893-23.893v-119.467h187.733v119.467h-3.413zM887.467 387.657v0c0 13.653 10.24 23.893 23.893 23.893s23.893-10.24 23.893-23.893v-368.64c0-13.653-10.24-23.893-23.893-23.893v0h-798.72c-13.653 0-23.893 10.24-23.893 23.893v0 368.64c0 13.653 10.24 23.893 23.893 23.893s23.893-10.24 23.893-23.893v-344.747h750.933v344.747zM136.533 783.604v0c0-13.653-10.24-23.893-23.893-23.893s-23.893 10.24-23.893 23.893v71.68c0 13.653 10.24 23.893 23.893 23.893v0h798.72c13.653 0 23.893-10.24 23.893-23.893v0-75.093c0-13.653-10.24-23.893-23.893-23.893s-23.893 10.24-23.893 23.893v54.613h-750.933v-51.2zM6.827 725.577v0c0 20.48 17.067 37.547 37.547 37.547 23.893 0 40.96-17.067 40.96-37.547v-238.933c0-20.48-17.067-37.547-37.547-37.547s-37.547 17.067-37.547 37.547v238.933h-3.413zM139.947 725.577v0c0 20.48 17.067 37.547 37.547 37.547s37.547-17.067 37.547-37.547v-238.933c0-20.48-17.067-37.547-37.547-37.547s-37.547 17.067-37.547 37.547v238.933zM273.067 725.577v0c0 20.48 17.067 37.547 37.547 37.547s37.547-17.067 37.547-37.547v-238.933c0-20.48-17.067-37.547-37.547-37.547s-37.547 17.067-37.547 37.547v238.933zM406.187 725.577v0c0 20.48 17.067 37.547 37.547 37.547s37.547-17.067 37.547-37.547v-238.933c0-20.48-17.067-37.547-37.547-37.547s-37.547 17.067-37.547 37.547v238.933zM539.307 725.577v0c0 20.48 17.067 37.547 37.547 37.547s37.547-17.067 37.547-37.547v-238.933c0-20.48-17.067-37.547-37.547-37.547s-37.547 17.067-37.547 37.547v238.933zM672.427 725.577v0c0 20.48 17.067 37.547 37.547 37.547 23.893 0 40.96-17.067 40.96-37.547v-238.933c0-20.48-17.067-37.547-37.547-37.547s-37.547 17.067-37.547 37.547v238.933h-3.413zM805.547 725.577v0c0 20.48 17.067 37.547 37.547 37.547s37.547-17.067 37.547-37.547v-238.933c0-20.48-17.067-37.547-37.547-37.547s-37.547 17.067-37.547 37.547v238.933zM938.667 725.577v0c0 20.48 17.067 37.547 37.547 37.547s37.547-17.067 37.547-37.547v-238.933c0-20.48-17.067-37.547-37.547-37.547s-37.547 17.067-37.547 37.547v238.933zM426.667 374.004v0c0 13.653 10.24 23.893 23.893 23.893s23.893-10.24 23.893-23.893v-266.24c0-13.653-10.24-23.893-23.893-23.893v0h-232.107c-13.653 0-23.893 10.24-23.893 23.893v0 266.24c0 13.653 10.24 23.893 23.893 23.893s23.893-10.24 23.893-23.893v-242.347h184.32v242.347z" />
<glyph unicode="&#xe60f;" glyph-name="move" d="M798.72 247.71c20.48 0 40.96-17.067 40.96-40.96 0-20.48-17.067-37.547-40.96-37.547-20.48 0-37.547 17.067-37.547 37.547 0 23.893 17.067 40.96 37.547 40.96v0zM692.907 421.79v0h215.040l-61.44 126.293h-153.6v-126.293zM931.84 374.004v0h-238.933v-126.293c20.48-3.413 34.133-17.067 34.133-37.547s6.827-37.547 20.48-51.2v0 0c13.653-13.653 30.72-20.48 51.2-20.48s37.547 6.827 51.2 20.48v0c13.653 13.653 20.48 30.72 20.48 51.2v0c0 20.48 17.067 40.96 37.547 40.96h30.72v102.4l-6.827 20.48zM948.907 169.204v0c-6.827-27.307-20.48-51.2-40.96-68.267l-3.413-3.413c-27.307-27.307-64.853-40.96-105.813-40.96s-78.507 17.067-105.813 44.373v0c-20.48 20.48-30.72 40.96-40.96 68.267v0h-228.693c-6.827-27.307-20.48-51.2-40.96-68.267-27.307-27.307-64.853-44.373-109.227-44.373-40.96 0-81.92 17.067-109.227 44.373-17.067 20.48-34.133 40.96-40.96 68.267h-81.92c-20.48 0-37.547 17.067-37.547 37.547v0 576.853c0 20.48 17.067 37.547 37.547 37.547v0h610.987c20.48 0 40.96-17.067 40.96-37.547v0-153.6h177.493c17.067 0 30.72-10.24 37.547-23.893l112.64-225.28c3.413-6.827 3.413-10.24 3.413-17.067v0-150.187c0-20.48-17.067-37.547-37.547-37.547v0h-37.547v-6.827zM614.4 742.644v0h-532.48v-494.933h78.507c20.48 0 37.547-17.067 37.547-40.96 0-20.48 6.827-37.547 20.48-51.2s30.72-20.48 51.2-20.48c20.48 0 37.547 10.24 51.2 20.48 13.653 13.653 20.48 30.72 20.48 51.2v0c0 20.48 17.067 40.96 37.547 40.96h235.52v494.933zM273.067 247.71v0c20.48 0 37.547-17.067 37.547-40.96 0-20.48-17.067-37.547-37.547-37.547s-37.547 17.067-37.547 37.547c0 23.893 17.067 40.96 37.547 40.96v0z" />
<glyph unicode="&#xe610;" glyph-name="id" d="M629.491 584.893h274.863v-38.804h-274.863v38.804zM629.491 349.912h274.863v-38.804h-274.863v38.804zM629.491 467.402h196.177v-38.804h-196.177v38.804zM590.686 820.952v117.491h-157.373v-117.491h-431.158v-863.394h1019.688v863.394h-431.158zM983.040 781.069v-78.686h-392.354v78.686h392.354zM473.196 899.638h78.686v-196.177h-78.686v196.177zM40.96 781.069h392.354v-78.686h-392.354v78.686zM40.96-3.638v667.217h942.080v-667.217h-942.080zM579.907 170.981c-28.025 11.857-94.855 34.493-136.893 47.427-3.234 1.078-4.312 1.078-4.312 16.168 0 11.857 5.389 24.792 9.701 34.493 5.389 10.779 11.857 30.181 14.013 47.427 6.467 7.545 15.091 21.558 20.48 49.583 4.312 23.714 2.156 33.415-1.078 40.96 0 1.078-1.078 2.156-1.078 2.156-1.078 5.389 0 35.571 4.312 58.206 3.234 16.168-1.078 48.505-22.636 76.531-11.857 17.246-37.726 38.804-85.154 40.96h-25.869c-46.349-3.234-73.297-24.792-86.232-42.038-21.558-28.025-24.792-60.362-22.636-76.531 4.312-22.636 5.389-51.739 4.312-58.206 0-1.078-1.078-2.156-1.078-2.156-3.234-8.623-5.389-17.246-1.078-40.96 5.389-26.947 14.013-42.038 20.48-49.583 2.156-17.246 8.623-35.571 14.013-47.427 4.312-8.623 5.389-19.402 5.389-35.571 0-15.091-1.078-15.091-4.312-16.168-43.116-12.935-111.023-37.726-135.815-48.505-20.48-8.623-24.792-23.714-24.792-37.726 0-4.312 0-9.701 0-17.246h38.804v17.246c0 1.078 0 1.078 0 1.078s1.078 0 1.078 1.078c23.714 10.779 90.543 34.493 132.581 47.427 31.259 9.701 31.259 38.804 31.259 52.817 0 21.558-3.234 37.726-9.701 51.739-4.312 8.623-8.623 23.714-10.779 35.571l-1.078 11.857-7.545 8.623c-1.078 1.078-7.545 8.623-11.857 31.259-3.234 15.091-2.156 17.246-1.078 19.402s2.156 5.389 3.234 8.623c3.234 16.168-1.078 54.973-4.312 73.297-1.078 5.389 0 26.947 15.091 45.272 12.935 16.168 31.259 24.792 57.128 26.947h23.714c25.869-2.156 45.272-10.779 57.128-26.947 14.013-18.324 16.168-39.882 15.091-45.272-3.234-17.246-7.545-57.128-4.312-73.297v-2.156c0-2.156 1.078-3.234 2.156-5.389s2.156-4.312-1.078-19.402c-4.312-21.558-10.779-30.181-11.857-31.259l-7.545-8.623-1.078-11.857c-1.078-11.857-6.467-26.947-10.779-35.571-6.467-12.935-14.013-31.259-14.013-51.739 0-14.013 0-43.116 32.337-53.895 38.804-11.857 104.556-34.493 132.581-45.272 4.312-2.156 5.389-4.312 6.467-4.312v-16.168h38.804c0 6.467 0 12.935 0 17.246 0 14.013-9.701 31.259-30.181 39.882z" />
<glyph unicode="&#xe611;" glyph-name="call" d="M238.933 909.897l150.187-191.147 3.413-3.413c6.827-10.24 13.653-20.48 13.653-30.72 3.413-13.653 3.413-23.893 0-37.547 0-13.653-6.827-23.893-13.653-34.133v-3.413c-6.827-10.24-13.653-17.067-23.893-23.893l-3.413-3.413-71.68-51.2c-3.413-10.24-10.24-34.133 10.24-61.44 30.72-47.787 68.267-88.747 105.813-126.293v0 0c40.96-40.96 81.92-75.093 126.293-105.813 27.307-20.48 51.2-13.653 61.44-10.24l54.613 75.093c6.827 10.24 17.067 20.48 27.307 27.307s23.893 10.24 37.547 13.653v0c13.653 0 23.893 0 37.547-3.413h3.413c10.24-3.413 20.48-10.24 30.72-17.067l191.147-150.187 3.413-3.413c10.24-6.827 17.067-17.067 23.893-27.307v0c6.827-13.653 10.24-27.307 10.24-40.96s0-27.307-6.827-40.96v0c-3.413-13.653-13.653-23.893-23.893-34.133-13.653-10.24-27.307-23.893-44.373-34.133h-3.413c-17.067-10.24-37.547-20.48-61.44-27.307-105.813-34.133-218.453-27.307-327.68 6.827-116.053 37.547-225.28 109.227-314.027 201.387-88.747 88.747-160.427 201.387-201.387 314.027-34.133 98.987-40.96 211.627-6.827 317.44 6.827 27.307 20.48 47.787 30.72 64.853v0 0c10.24 17.067 23.893 34.133 34.133 44.373s20.48 17.067 34.133 23.893h3.413c10.24 3.413 23.893 6.827 37.547 6.827s27.307-3.413 40.96-10.24h3.413l27.307-23.893zM324.267 667.55v0l-146.773 194.56c0 3.413-3.413 3.413-3.413 3.413v0c-3.413 0-3.413 0-6.827 0s-3.413 0-6.827 0v0c-3.413 0-3.413-3.413-6.827-3.413-6.827-10.24-17.067-20.48-23.893-34.133-13.653-13.653-20.48-27.307-27.307-47.787-30.72-88.747-23.893-184.32 6.827-279.893 34.133-102.4 98.987-201.387 180.907-283.307s180.907-146.773 283.307-180.907c92.16-30.72 191.147-37.547 279.893-6.827 17.067 6.827 34.133 13.653 47.787 20.48v0c13.653 6.827 23.893 17.067 34.133 23.893 0 0 3.413 3.413 3.413 6.827v0 0c0 0 0 3.413 0 6.827s0 3.413 0 6.827v0c0 0 0 3.413-3.413 3.413v0l-191.147 150.187c-3.413 0-3.413 3.413-6.827 3.413v0c-3.413 0-3.413 0-6.827 0v0c-3.413 0-3.413 0-6.827-3.413v0 0c-3.413 0-3.413-3.413-3.413-3.413v0 0l-58.027-81.92c-3.413-3.413-6.827-10.24-13.653-10.24 0 0-68.267-47.787-153.6 10.24-51.2 34.133-95.573 75.093-139.947 116.053v0c-40.96 44.373-81.92 92.16-116.053 139.947-58.027 85.333-10.24 153.6-10.24 153.6 3.413 3.413 6.827 6.827 10.24 10.24l81.92 61.44c3.413 0 3.413 3.413 3.413 3.413v0c0 0 0 3.413 0 6.827s0 3.413 0 6.827c3.413 3.413 3.413 3.413 0 6.827v0 0zM238.933 909.897v0 0 0 0zM238.933 909.897v0 0 0 0z" />
<glyph unicode="&#xe612;" glyph-name="join" d="M284.564 334.301c-12.935 0-23.714 9.701-23.714 22.636s10.779 23.714 23.714 23.714h150.905c12.935 0 23.714-10.779 23.714-23.714s-10.779-22.636-23.714-22.636h-150.905zM768.539 275.017v0l84.076-146.594c6.467-10.779 3.234-24.792-8.623-32.337-5.389-3.234-11.857-4.312-17.246-2.156l-66.829 17.246-17.246-66.829c-3.234-11.857-16.168-20.48-29.103-16.168-6.467 2.156-11.857 6.467-15.091 12.935l-52.817 91.621-53.895-93.777c-6.467-10.779-20.48-15.091-32.337-8.623-5.389 3.234-8.623 8.623-10.779 14.013l-17.246 66.829-66.829-17.246c-12.935-4.312-24.792 3.234-28.025 16.168-2.156 6.467-1.078 14.013 3.234 18.324l84.076 145.516c-6.467 15.091-10.779 32.337-10.779 49.583 0 36.648 15.091 70.063 38.804 93.777 23.714 24.792 57.128 38.804 93.777 38.804s70.063-15.091 93.777-38.804c24.792-23.714 38.804-57.128 38.804-93.777 0-17.246-4.312-33.415-9.701-48.505v0zM573.44 278.251v0 0l1.078-2.156c28.025-46.349 94.855-49.583 131.503-12.935l1.078 1.078h1.078c14.013 16.168 22.636 36.648 22.636 59.284 0 23.714-8.623 45.272-24.792 60.362-15.091 15.091-36.648 24.792-60.362 24.792s-44.194-9.701-60.362-24.792c-15.091-15.091-24.792-36.648-24.792-60.362 0-16.168 4.312-31.259 12.935-45.272v0zM739.436 230.823v0 0c-20.48-20.48-44.194-32.337-72.219-36.648h-1.078l-1.078-1.078v-1.078h-1.078l1.078-2.156 45.272-79.764 8.623 34.493c3.234 12.935 16.168 20.48 29.103 17.246l34.493-9.701-43.116 78.686zM551.882 230.823v0 0l-45.272-77.608 33.415 9.701h1.078c12.935 3.234 25.869-4.312 29.103-17.246l8.623-34.493 45.272 79.764 1.078 2.156c-28.025 4.312-52.817 17.246-73.297 37.726v0zM171.385 947.623v0h463.495c10.779 0 20.48-4.312 28.025-11.857l282.408-283.486c7.545-7.545 11.857-17.246 11.857-28.025v-589.608c0-29.103-11.857-54.973-31.259-73.297v-1.078l-1.078-1.078c-19.402-18.324-45.272-30.181-73.297-30.181h-680.152c-29.103 0-54.973 11.857-74.375 31.259v0c-19.402 19.402-31.259 45.272-31.259 74.375v808.421c0 29.103 11.857 54.973 31.259 74.375 19.402 18.324 45.272 30.181 74.375 30.181v0zM611.166 868.937v0h-439.781c-7.545 0-14.013-3.234-18.324-7.545-4.312-5.389-7.545-11.857-7.545-19.402v-807.343c0-6.467 3.234-14.013 7.545-19.402v0c5.389-4.312 11.857-7.545 19.402-7.545h681.229c7.545 0 14.013 3.234 18.324 7.545v0c4.312 5.389 7.545 11.857 7.545 19.402v566.973h-178.931c-24.792 0-46.349 9.701-62.518 25.869l-1.078 2.156c-15.091 16.168-24.792 37.726-24.792 61.44v177.853h-1.078zM839.68 649.046v0l-181.086 181.086v-139.048c0-10.779 4.312-21.558 11.857-29.103l1.078-1.078c6.467-7.545 18.324-11.857 29.103-11.857h139.048zM283.486 545.569v0 0h460.261l1.078-1.078h3.234l1.078-1.078h2.156l1.078-1.078h9.701v-1.078h-6.467l1.078-1.078v-1.078l1.078-1.078v-1.078h1.078v-2.156l1.078-1.078h1.078l1.078-1.078h1.078v-1.078l1.078-1.078v-1.078h1.078v-1.078 2.156l1.078-1.078v-2.156l1.078-1.078v-6.467h1.078v-4.312l-1.078-1.078v-1.078 3.234h-1.078v-2.156l-1.078-1.078v-1.078l-1.078-1.078v-1.078l-1.078-1.078v-1.078l-1.078-1.078h-1.078v-1.078l-1.078-1.078v4.312h-1.078v-2.156l-1.078-1.078v-1.078l-1.078-1.078v-1.078h-2.156v2.156h-3.234l-2.156-2.156h-1.078l-1.078-1.078h-6.467v-1.078h-3.234l-1.078-1.078h7.545v-1.078h-463.495v1.078l-1.078 1.078h-3.234v1.078h-7.545v1.078h-1.078v1.078h-1.078v1.078h1.078v1.078l-1.078 1.078v1.078l-1.078 1.078h-1.078v5.389l-1.078 1.078v1.078l-1.078 1.078v2.156l-1.078 1.078v1.078l-1.078 1.078v1.078l-1.078 1.078v1.078-4.312l-1.078 1.078v4.312h1.078v5.389l1.078 1.078v2.156l1.078 1.078v-5.389h1.078v2.156l1.078 1.078v1.078h1.078v3.234h1.078v1.078h1.078v1.078l1.078 1.078v1.078l1.078 1.078h2.156v1.078h8.623l1.078 1.078h2.156l1.078 1.078h-3.234l1.078 1.078h2.156v-3.234zM284.564 664.137v0c-12.935 0-23.714 10.779-23.714 23.714s10.779 23.714 23.714 23.714h252.227c12.935 0 22.636-10.779 22.636-23.714s-10.779-23.714-22.636-23.714h-252.227z" />
<glyph unicode="&#xe613;" glyph-name="key" d="M469.962 488.96c3.234 0 7.545 1.078 10.779 4.312l356.783 312.589-20.48 23.714-356.783-312.589c-6.467-5.389-7.545-16.168-1.078-22.636 2.156-3.234 6.467-5.389 10.779-5.389v0zM328.758-56.455c192.943 0 309.356 151.983 309.356 299.655 0 42.038-9.701 89.465-24.792 119.646l142.282 71.141c5.389 2.156 8.623 8.623 8.623 14.013v126.114h94.855c0 0 3.234 0 3.234 0 20.48 1.078 26.947 8.623 28.025 31.259v126.114h94.855c4.312 0 6.467 0 8.623-1.078 4.312-1.078 10.779-2.156 17.246 4.312 6.467 5.389 6.467 12.935 5.389 19.402 0 2.156 0 5.389 0 9.701v142.282c0 25.869-20.48 46.349-46.349 46.349h-122.88c-10.779 0-21.558-4.312-30.181-11.857l-414.989-364.328c-20.48 4.312-51.739 9.701-73.297 9.701-176.775 0-321.213-144.438-321.213-321.213s144.438-321.213 321.213-321.213v0zM328.758 554.712c16.168 0 43.116-4.312 74.375-10.779 5.389-1.078 9.701 0 14.013 3.234l420.379 369.718c3.234 2.156 6.467 3.234 9.701 3.234h121.802c8.623 0 15.091-6.467 15.091-15.091v-142.282h-109.945c-8.623 0-16.168-7.545-16.168-16.168v-141.204h-109.945c-8.623 0-16.168-7.545-16.168-16.168v-131.503l-148.749-74.375c-4.312-2.156-7.545-5.389-8.623-10.779s0-9.701 2.156-12.935c14.013-19.402 28.025-66.829 28.025-116.413 0-131.503-103.478-267.318-277.019-267.318-159.528 0-288.876 129.347-288.876 288.876s130.425 289.954 289.954 289.954v0zM275.941 101.996c60.362 0 109.945 49.583 109.945 109.945s-49.583 109.945-109.945 109.945-109.945-49.583-109.945-109.945 48.505-109.945 109.945-109.945zM275.941 290.627c43.116 0 78.686-35.571 78.686-78.686s-35.571-78.686-78.686-78.686-78.686 35.571-78.686 78.686 34.493 78.686 78.686 78.686z" />
<glyph unicode="&#xe614;" glyph-name="search" d="M1010.347-1.463l-184.32 184.32c30.72 37.547 54.613 75.093 71.68 119.467 23.893 54.613 34.133 116.053 34.133 177.493s-13.653 122.88-34.133 177.493v3.413c-23.893 54.613-58.027 105.813-98.987 150.187v3.413c-40.96 44.373-95.573 78.507-150.187 102.4v0c-54.613 23.893-116.053 34.133-177.493 34.133-133.12 0-249.173-51.2-334.507-136.533-40.96-44.373-78.507-95.573-102.4-153.6-23.893-54.613-34.133-116.053-34.133-177.493s13.653-122.88 34.133-177.493v-3.413c23.893-58.027 58.027-109.227 102.4-150.187v0c44.373-44.373 95.573-78.507 150.187-102.4v0 0c54.613-23.893 116.053-34.133 177.493-34.133s122.88 13.653 177.493 34.133c44.373 17.067 85.333 40.96 119.467 71.68l184.32-184.32c17.067-17.067 44.373-17.067 61.44 0 20.48 20.48 20.48 47.787 3.413 61.44v0zM737.28 213.577v0 0 0c-37.547-37.547-78.507-64.853-122.88-81.92-44.373-20.48-95.573-27.307-146.773-27.307s-102.4 10.24-146.773 27.307v0c-47.787 20.48-88.747 47.787-122.88 81.92v0c-34.133 34.133-64.853 78.507-81.92 122.88v3.413c-17.067 44.373-27.307 92.16-27.307 143.36s10.24 102.4 27.307 146.773c20.48 47.787 47.787 88.747 81.92 122.88 68.267 68.267 163.84 112.64 269.653 112.64 51.2 0 102.4-10.24 146.773-27.307v0c47.787-20.48 88.747-47.787 122.88-81.92l3.413-3.413c34.133-34.133 61.44-75.093 81.92-122.88v-3.413c17.067-44.373 27.307-92.16 27.307-143.36s-10.24-102.4-27.307-146.773c-23.893-44.373-51.2-88.747-85.333-122.88v0zM348.16 763.124v0c-17.067-10.24-34.133-17.067-51.2-27.307s-30.72-23.893-44.373-37.547c-13.653-13.653-23.893-30.72-37.547-44.373-10.24-17.067-20.48-34.133-27.307-51.2-6.827-13.653 0-27.307 13.653-34.133s27.307 0 34.133 13.653c6.827 13.653 13.653 30.72 23.893 40.96v0c10.24 13.653 20.48 27.307 30.72 37.547v0c10.24 10.24 23.893 20.48 37.547 30.72s27.307 17.067 40.96 23.893c13.653 6.827 20.48 20.48 13.653 34.133-3.413 13.653-20.48 17.067-34.133 13.653v0zM744.107 510.537v0c-13.653 0-23.893-10.24-23.893-27.307 0-34.133-6.827-64.853-20.48-95.573v0c-13.653-27.307-30.72-54.613-54.613-78.507s-51.2-40.96-81.92-54.613c-30.72-13.653-61.44-20.48-95.573-20.48-13.653 0-27.307-10.24-27.307-27.307 0-13.653 10.24-23.893 27.307-23.893 40.96 0 78.507 6.827 116.053 23.893 37.547 13.653 68.267 37.547 98.987 64.853 27.307 27.307 51.2 61.44 64.853 95.573v0c17.067 37.547 23.893 75.093 23.893 116.053 0 13.653-13.653 27.307-27.307 27.307v0z" />
<glyph unicode="&#xe615;" glyph-name="lock" horiz-adv-x="896" d="M448 960c-176.4 0-320-143.6-320-320v-96h-48c-44.1 0-80-35.9-80-80v-448c0-44.1 35.9-80 80-80h736c44.1 0 80 35.9 80 80v448c0 44.1-35.9 80-80 80h-48v96c0 176.4-143.6 320-320 320zM160 640c0 158.8 129.2 288 288 288s288-129.2 288-288v-96h-96v96c0 105.9-86.1 192-192 192s-192-86.1-192-192v-96h-96v96zM608 544h-320v96c0 88.2 71.8 160 160 160s160-71.8 160-160v-96zM393.4 288l-160-160h-146.8l160 160h146.8zM585.4 288l-160-160h-146.8l160 160h146.8zM777.4 288l-160-160h-146.8l160 160h146.8zM864 288v-160h-201.4l160 160h41.4zM41.4 128h-9.4v160h169.4l-160-160zM816-32h-736c-26.5 0-48 21.5-48 48v80h832v-80c0-26.5-21.5-48-48-48zM864 464v-144h-832v144c0 26.5 21.5 48 48 48h736c26.5 0 48-21.5 48-48z" />
<glyph unicode="&#xe616;" glyph-name="identification" d="M2.014 412.847c0 16.009 0 32.017 0 47.991 0.614 3.516 1.331 7.031 1.775 10.581 2.935 22.699 4.267 45.739 9.011 68.062 26.453 124.962 90.453 226.816 191.727 304.606 70.11 53.828 149.333 86.972 237.124 98.987 16.077 2.185 32.256 3.857 48.367 5.734 16.009 0 32.017 0 47.991 0 3.243-0.58 6.451-1.297 9.728-1.707 22.699-2.901 45.773-4.13 68.096-8.841 126.054-26.59 228.659-91.17 306.756-193.638 53.146-69.769 85.811-148.48 97.724-235.554 2.185-16.043 3.823-32.154 5.734-48.23 0-16.009 0-32.017 0-47.991-0.614-3.516-1.331-7.031-1.775-10.581-2.935-22.699-4.267-45.739-9.011-68.062-26.453-124.962-90.419-226.816-191.727-304.606-70.144-53.862-149.367-86.938-237.124-98.987-16.077-2.219-32.256-3.857-48.367-5.734-16.009 0-32.017 0-47.991 0-3.243 0.58-6.451 1.331-9.728 1.741-22.699 2.901-45.773 4.13-68.096 8.841-126.054 26.59-228.693 91.136-306.756 193.638-53.146 69.769-85.811 148.48-97.724 235.554-2.219 16.009-3.857 32.119-5.734 48.196zM980.002 438.174c1.673 256.375-206.916 464.691-459.571 468.924-262.724 4.369-472.678-207.292-476.706-460.083-4.164-263.134 208.486-473.532 462.37-476.467 262.042-3.038 475.204 210.432 473.907 467.627zM560.777 739.401c23.177 0 44.988 0 67.14 0-12.629-46.455-10.445-92.331-8.841-138.138 1.809-51.917 7.168-103.39 20.958-153.668 18.807-68.54 47.411-132.574 89.668-189.918 22.562-30.618 51.405-54.784 83.217-75.435 3.038-1.98 5.973-4.062 9.66-6.554-21.436-9.318-41.199-19.49-52.019-41.54-97.041 75.913-147.251 178.893-175.65 295.902-27.443-121.378-94.037-217.6-182.921-297.335-17.681 12.527-34.27 24.269-49.835 35.294 18.227 16.111 38.707 32.154 56.798 50.586 69.427 70.758 116.804 153.907 134.076 252.211 5.598 31.949 7.714 64.751 8.567 97.246 1.331 50.551 0.239 101.171 0.068 151.723-0.034 6.588-0.614 13.175-0.887 19.627zM294.775 490.432c-30.481 0-59.631 0-89.395 0 0 15.326 0 31.471 0 46.967 48.299 0 96.051 0 143.633 0 0-82.569 0-163.601 0-247.194 27.58 30.379 54.033 59.46 80.555 88.644 9.796-15.906 19.319-31.334 28.365-46.012-46.080-49.937-92.262-99.977-138.411-149.982-13.244 12.663-27.921 26.658-43.008 41.062 15.428 16.452 18.671 36.352 18.466 58.095-0.614 65.297-0.205 130.594-0.205 195.891 0 3.994 0 7.953 0 12.527zM281.156 698.578c11.366 11.469 23.177 23.415 36.352 36.693 33.109-26.999 65.161-61.679 95.71-96.188-14.336-12.425-28.058-24.337-41.711-36.215-14.37 16.759-28.604 34.679-44.305 51.234-15.735 16.623-32.905 31.881-46.046 44.476z" />
<glyph unicode="&#xe617;" glyph-name="home_1" d="M512 873.6l-169.6-169.6v67.2h-137.6v-204.8l-121.6-118.4 25.6-25.6 403.2 403.2 403.2-403.2 25.6 25.6-428.8 425.6zM240 739.2h67.2v-67.2l-67.2-67.2v134.4zM204.8 432v-409.6h240v240h137.6v-240h240v409.6l-310.4 307.2-307.2-307.2zM784 54.4h-169.6v240h-204.8v-240h-169.6v361.6l272 275.2 272-272v-364.8z" />
<glyph unicode="&#xe618;" glyph-name="message" horiz-adv-x="1216" d="M641.9 946.8c-18.6 17.1-49.2 17.1-67.8 0l-566-341.5c-4.8-2.9-7.7-8.1-7.7-13.7v-605.5c0-27.6 22.6-50.1 50.4-50.1h1114.6c27.8 0 50.4 22.5 50.4 50.1v605.5c0 5.6-2.9 10.8-7.7 13.7l-566.2 341.5zM592.1 920.3c1.1 0.7 2.1 1.5 3 2.4 3.5 3.4 8 5.3 12.8 5.3s9.4-1.9 12.8-5.3c0.9-0.9 2-1.7 3-2.4l551.3-332.6-399.3-238c-7.6-4.5-10.1-14.3-5.6-22 3-5 8.3-7.8 13.8-7.8 2.8 0 5.6 0.7 8.2 2.2l391.9 233.4v-568.2l-541.9 360.5c-17.2 13.7-51 13.7-67.1 0.8l-543-361.1v568l391.8-233.3c2.6-1.5 5.4-2.2 8.2-2.2 5.4 0 10.8 2.8 13.8 7.8 4.5 7.6 2 17.4-5.6 22l-399.3 238 551.2 332.5zM1154.9-32h-1094l533 354.8c5.5 4.4 22.8 4.4 29.4-0.8l531.6-354zM208 544h800c8.8 0 16 7.2 16 16s-7.2 16-16 16h-800c-8.8 0-16-7.2-16-16s7.2-16 16-16z" />
<glyph unicode="&#xe619;" glyph-name="my" d="M944.236 196.331l-176.775 82.998c-11.857 5.389-20.48 16.168-23.714 28.025s-1.078 22.636 4.312 32.337c44.194 72.219 60.362 161.684 60.362 220.968v114.257c0 189.709-148.749 274.863-296.421 274.863-146.594 0-296.421-85.154-296.421-274.863v-114.257c0-56.051 16.168-147.672 61.44-218.813 6.467-9.701 7.545-20.48 4.312-32.337-3.234-12.935-12.935-22.636-24.792-29.103l-178.931-84.076c-12.935-5.389-77.608-36.648-77.608-86.232v-121.802c0-32.337 25.869-61.44 57.128-61.44h904.354c32.337 0 62.518 30.181 62.518 61.44v121.802c0 50.661-64.674 79.764-79.764 86.232zM970.105-10.625c0-1.078-7.545-8.623-8.623-8.623h-903.276c0 0-4.312 6.467-4.312 7.545v121.802c0 6.467 22.636 23.714 46.349 34.493l180.008 84.076c26.947 12.935 47.427 36.648 56.051 64.674 7.545 26.947 2.156 54.973-12.935 78.686-38.804 61.44-53.895 140.126-53.895 188.632v114.257c0 105.634 66.829 217.735 242.526 217.735 115.335 0 242.526-57.128 242.526-217.735v-114.257c0-49.583-16.168-128.269-53.895-189.709-15.091-23.714-19.402-52.817-11.857-79.764 8.623-28.025 28.025-51.739 53.895-64.674l177.853-84.076 3.234-1.078c23.714-9.701 46.349-26.947 46.349-33.415v-118.568z" />
<glyph unicode="&#xe61a;" glyph-name="express_call" d="M512 908.8c253.44 0 460.8-207.36 460.8-460.8s-207.36-460.8-460.8-460.8-460.8 207.36-460.8 460.8 207.36 460.8 460.8 460.8zM512 960c-281.6 0-512-230.4-512-512s230.4-512 512-512c281.6 0 512 230.4 512 512s-230.4 512-512 512v0zM368.64 709.12c30.72 5.12 51.2-28.16 66.56-53.76 15.36-23.040 33.28-51.2 25.6-81.92-5.12-17.92-20.48-25.6-30.72-35.84s-28.16-17.92-33.28-33.28c-7.68-25.6 7.68-51.2 17.92-66.56 20.48-33.28 46.080-64 79.36-89.6 15.36-12.8 38.4-30.72 61.44-25.6 33.28 7.68 40.96 48.64 76.8 53.76 33.28 5.12 58.88-20.48 76.8-35.84s48.64-35.84 46.080-64c0-15.36-12.8-25.6-25.6-35.84-10.24-10.24-20.48-20.48-33.28-28.16-28.16-17.92-58.88-25.6-97.28-25.6s-66.56 12.8-94.72 28.16c-53.76 28.16-94.72 66.56-133.12 110.080s-74.24 94.72-94.72 151.040c-25.6 71.68-12.8 143.36 28.16 189.44 7.68 7.68 17.92 15.36 28.16 23.040 12.8 7.68 20.48 17.92 35.84 20.48z" />
<glyph unicode="&#xe61b;" glyph-name="news" d="M512 960c141.204 0 269.474-57.128 362.173-149.827l2.156-2.156c91.621-91.621 147.672-218.813 147.672-358.939 0-54.973-8.623-107.789-24.792-158.451-16.168-47.427-37.726-91.621-65.752-131.503v-182.164c0-21.558-18.324-38.804-39.882-38.804h-381.575c-141.204 0-269.474 57.128-362.173 149.827v0c-92.699 91.621-148.749 218.813-148.749 360.017s57.128 269.474 149.827 362.173v0c91.621 92.699 219.891 149.827 361.095 149.827v0zM256.539 550.4v0c-12.935 0-23.714 10.779-23.714 23.714s10.779 23.714 23.714 23.714h509.844c12.935 0 23.714-10.779 23.714-23.714s-10.779-23.714-23.714-23.714h-509.844zM256.539 424.286v0c-12.935 0-23.714 10.779-23.714 23.714s10.779 23.714 23.714 23.714h509.844c12.935 0 23.714-10.779 23.714-23.714s-10.779-23.714-23.714-23.714h-509.844zM256.539 298.173v0c-12.935 0-23.714 10.779-23.714 24.792 0 12.935 10.779 23.714 23.714 23.714h509.844c12.935 0 23.714-10.779 23.714-23.714s-10.779-24.792-23.714-24.792h-509.844zM818.122 754.122v0c-78.686 78.686-186.476 127.192-306.122 127.192s-227.436-48.505-306.122-127.192v0 0c-78.686-78.686-127.192-186.476-127.192-306.122s48.505-227.436 127.192-306.122v0c78.686-78.686 187.554-127.192 306.122-127.192h342.771v155.217c0 7.545 2.156 16.168 7.545 23.714 26.947 36.648 47.427 76.531 61.44 120.724 14.013 42.038 21.558 87.309 21.558 133.659 0 119.646-47.427 226.358-125.036 303.966l-2.156 2.156z" />
<glyph unicode="&#xe61c;" glyph-name="square-uncheck" d="M170.667 917.333h682.667c35.333 0 65.467-12.533 90.533-37.467s37.467-55.2 37.467-90.533v-682.667c0-35.333-12.533-65.467-37.467-90.533s-55.2-37.467-90.533-37.467h-682.667c-35.333 0-65.467 12.533-90.533 37.467s-37.467 55.2-37.467 90.533v682.667c0 35.333 12.533 65.467 37.467 90.533s55.2 37.467 90.533 37.467zM853.333 832h-682.667c-11.733 0-21.867-4.133-30.133-12.533s-12.533-18.4-12.533-30.133v-682.667c0-11.733 4.133-21.867 12.533-30.133s18.4-12.533 30.133-12.533h682.667c11.733 0 21.867 4.133 30.133 12.533s12.533 18.4 12.533 30.133v682.667c0 11.733-4.133 21.867-12.533 30.133s-18.4 12.533-30.133 12.533z" />
<glyph unicode="&#xe61d;" glyph-name="order" d="M963.638 670.604h-187.554v70.063c0 3.234 3.234 7.545 3.234 10.779 0 109.945-87.309 198.333-197.255 198.333-34.493 0-66.829-8.623-94.855-24.792-24.792 10.779-50.661 16.168-77.608 16.168-105.634 0-192.943-82.998-199.411-186.476-2.156-3.234-5.389-7.545-5.389-11.857v-72.219h-142.282c-26.947 0-51.739-26.947-51.739-54.973v-644.581c0-25.869 21.558-44.194 51.739-44.194h901.12c26.947 0 49.583 21.558 49.583 48.505v643.503c0 28.025-22.636 51.739-49.583 51.739zM732.968 765.459c-1.078-3.234 0-6.467 0-9.701v-85.154h-301.811v70.063c0 3.234 3.234 7.545 3.234 10.779 0 81.92 67.907 148.749 149.827 148.749 76.531 0 142.282-59.284 148.749-134.737zM409.6 892.651c10.779 0 20.48-1.078 30.181-3.234-31.259-32.337-52.817-74.375-57.128-120.724-2.156-3.234-6.467-7.545-6.467-12.935v-85.154h-117.491v62.518c0 3.234 2.156 7.545 2.156 10.779 0 81.92 66.829 148.749 148.749 148.749zM62.518-19.248c-1.078 0-2.156-2.156-3.234-2.156v637.036c1.078 1.078 3.234 1.078 3.234 1.078h109.945v-635.958h-109.945zM258.695-19.248h-32.337v635.958h737.28v-635.958h-704.943zM409.6 541.257c-37.726 0-67.907-30.181-67.907-67.907s30.181-67.907 67.907-67.907 67.907 30.181 67.907 67.907-30.181 67.907-67.907 67.907zM409.6 443.169c-17.246 0-31.259 14.013-31.259 31.259s14.013 31.259 31.259 31.259 31.259-14.013 31.259-31.259c0-18.324-14.013-31.259-31.259-31.259zM768.539 541.257c-37.726 0-67.907-30.181-67.907-67.907s30.181-67.907 67.907-67.907 67.907 30.181 67.907 67.907-30.181 67.907-67.907 67.907zM768.539 443.169c-17.246 0-31.259 14.013-31.259 31.259s14.013 31.259 31.259 31.259 31.259-14.013 31.259-31.259c0-18.324-14.013-31.259-31.259-31.259z" />
<glyph unicode="&#xe61e;" glyph-name="phone" horiz-adv-x="608" d="M48-64h512c26.5 0 48 21.5 48 48v928c0 26.5-21.5 48-48 48h-512c-26.5 0-48-21.5-48-48v-928c0-26.5 21.5-48 48-48zM32 912c0 8.8 7.2 16 16 16h512c8.8 0 16-7.2 16-16v-928c0-8.8-7.2-16-16-16h-512c-8.8 0-16 7.2-16 16v928zM80 96h448c8.8 0 16 7.2 16 16v672c0 8.8-7.2 16-16 16h-448c-8.8 0-16-7.2-16-16v-672c0-8.8 7.2-16 16-16zM96 768h416v-640h-416v640zM288 32c0-17.7 14.3-32 32-32s32 14.3 32 32-14.3 32-32 32-32-14.3-32-32zM240 832h128c8.8 0 16 7.2 16 16s-7.2 16-16 16h-128c-8.8 0-16-7.2-16-16s7.2-16 16-16z" />
<glyph unicode="&#xe61f;" glyph-name="picture" d="M379.419 464.726c-10.779 7.545-24.792 4.312-32.337-6.467l-187.554-291.032c-3.234-4.312-5.389-9.701-5.389-14.013 0-12.935 10.779-23.714 23.714-23.714h668.295c4.312 0 8.623 1.078 12.935 4.312 10.779 6.467 14.013 21.558 6.467 31.259l-260.851 404.211c-2.156 2.156-4.312 5.389-7.545 6.467-10.779 6.467-25.869 4.312-32.337-6.467l-125.036-194.021-53.895 81.92c-1.078 4.312-3.234 6.467-6.467 7.545v0zM460.261 320.289v0l125.036 194.021 217.735-337.381h-582.063l145.516 226.358 53.895-81.92c10.779-15.091 29.103-15.091 39.882-1.078v0zM215.579 658.748v0c0-52.817 43.116-94.855 94.855-94.855s94.855 42.038 94.855 94.855c0 51.739-43.116 94.855-94.855 94.855s-94.855-43.116-94.855-94.855v0zM358.939 658.748v0c0-26.947-21.558-47.427-47.427-47.427s-48.505 21.558-48.505 47.427c0 25.869 21.558 47.427 48.505 47.427 25.869 0 47.427-21.558 47.427-47.427v0zM981.962 244.836v0c-21.558 0-38.804-17.246-38.804-38.804v-196.177h-196.177c-21.558 0-39.882-17.246-39.882-38.804s18.324-39.882 39.882-39.882h234.981c21.558 0 38.804 18.324 38.804 39.882v234.981c1.078 21.558-17.246 38.804-38.804 38.804v0zM277.019 9.855v0h-196.177v196.177c0 21.558-17.246 38.804-38.804 38.804s-38.804-17.246-38.804-38.804v-234.981c0-21.558 17.246-39.882 38.804-39.882h234.981c21.558 0 38.804 18.324 38.804 39.882s-17.246 38.804-38.804 38.804v0zM42.038 637.19v0c21.558 0 38.804 17.246 38.804 38.804v196.177h196.177c21.558 0 38.804 18.324 38.804 39.882s-17.246 38.804-38.804 38.804h-234.981c-21.558 0-38.804-17.246-38.804-38.804v-234.981c-1.078-22.636 17.246-39.882 38.804-39.882v0zM981.962 950.857v0h-234.981c-21.558 0-39.882-17.246-39.882-38.804s18.324-39.882 39.882-39.882h196.177v-195.099c0-21.558 18.324-38.804 38.804-38.804s38.804 17.246 38.804 38.804v234.981c1.078 21.558-17.246 38.804-38.804 38.804v0z" />
<glyph unicode="&#xe620;" glyph-name="complain" d="M830.43-2.624l-344.030 229.376c-12.288 8.192-18.705 20.446-18.705 33.929v0.58h-43.281l79.292-225.826c7.305-21.367-3.823-44.749-25.463-52.361l-153.873-53.521c-21.641-7.305-45.056 4.096-52.361 25.429l-109.090 312.115c-42.155 10.547-78.438 33.075-105.882 63.761-33.382 37.444-53.555 85.436-53.555 138.957 0 56.73 23.415 109.124 61.133 146.842h0.58l0.58 0.614c37.444 37.137 89.532 60.826 145.715 60.826h256.239c0 15.531 8.192 28.672 20.48 35.977l344.849 229.956c18.978 11.708 44.169 6.997 56.73-11.981 4.983-7.031 7.031-14.916 7.031-22.528v-279.962c28.365-7.612 53.521-21.914 74.001-42.121l1.161-0.887c30.14-30.413 48.572-71.339 48.572-116.702s-18.432-86.869-48.572-117.316v0c-20.446-20.48-46.217-35.123-75.162-42.701v-280.235c0-22.528-18.466-40.38-41.233-40.38-9.353 0-18.159 2.628-25.156 8.158v0zM500.463 344.069v0 251.563h-289.007c-33.929 0-65.843-14.302-88.644-36.83-22.528-23.108-36.591-54.443-36.591-88.951 0-32.461 12.288-61.747 31.607-83.968 20.173-22.528 48.265-37.751 80.145-41.506 15.189-1.468 29.252-11.127 33.894-27.511l103.868-296.346 76.629 26.897-83.661 238.694c-2.082 4.983-3.243 10.24-3.243 16.077 0 22.835 18.159 41.847 41.54 41.847l133.461 0.034zM550.161 635.704v0-352.768l264.431-176.094v725.709l-264.431-175.821v-21.026zM896.853 577.199v0-215.313c15.497 5.871 28.945 14.916 40.653 25.771h-0.307c21.060 21.060 34.236 49.732 34.236 82.193 0 31.881-13.175 60.553-34.236 81.613l-0.853 0.853c-11.127 10.82-24.576 19.593-39.492 24.883v0z" />
<glyph unicode="&#xe621;" glyph-name="present" d="M80.842 648.488h861.238c21.558 0 38.804-17.246 38.804-37.726v-174.619c0-21.558-17.246-38.804-38.804-38.804h-4.312v-421.457c0-21.558-17.246-38.804-37.726-38.804h-776.084c-21.558 0-37.726 17.246-37.726 38.804v421.457h-5.389c-21.558 0-38.804 17.246-38.804 38.804v0 174.619c1.078 20.48 18.324 37.726 38.804 37.726v0zM586.375 13.608v0 383.731h-148.749v-383.731h148.749zM391.276 13.608v0 383.731h-228.514v-383.731h228.514zM632.724 397.339v0-383.731h229.592v383.731h-229.592zM514.156 879.158v0c18.324 0 35.571-5.389 50.661-14.013 7.545 20.48 18.324 38.804 33.415 53.895 24.792 24.792 59.284 39.882 97.011 39.882s72.219-15.091 97.011-39.882c24.792-24.792 40.96-59.284 40.96-97.011s-15.091-72.219-40.96-97.011c-24.792-24.792-58.206-40.96-97.011-40.96v0c-121.802 0-243.604 0-365.406 0v0c-37.726 0-72.219 16.168-97.011 40.96s-39.882 59.284-39.882 97.011c0 37.726 15.091 72.219 39.882 97.011s59.284 39.882 97.011 39.882c37.726 0 72.219-15.091 97.011-39.882 14.013-16.168 25.869-34.493 32.337-56.051 16.168 10.779 34.493 16.168 54.973 16.168v0zM549.726 818.796v0c-9.701 8.623-22.636 15.091-35.571 15.091-14.013 0-26.947-6.467-36.648-15.091-8.623-9.701-15.091-22.636-15.091-36.648s5.389-26.947 15.091-35.571c9.701-9.701 22.636-15.091 36.648-15.091 12.935 0 25.869 5.389 34.493 14.013l1.078 2.156c9.701 8.623 15.091 21.558 15.091 35.571 0 12.935-5.389 25.869-15.091 35.571v0zM604.699 818.796v0c4.312-11.857 7.545-23.714 7.545-36.648 0-19.402-5.389-36.648-15.091-51.739h98.088c25.869 0 48.505 9.701 64.674 25.869 17.246 17.246 26.947 38.804 26.947 64.674s-9.701 48.505-26.947 64.674c-16.168 16.168-38.804 26.947-64.674 26.947-24.792 0-47.427-9.701-63.596-26.947-16.168-16.168-26.947-38.804-26.947-64.674v-2.156zM431.158 730.408v0c-8.623 15.091-14.013 32.337-14.013 51.739 0 10.779 2.156 21.558 5.389 31.259-1.078 3.234-2.156 5.389-2.156 8.623 0 25.869-9.701 48.505-26.947 64.674-16.168 16.168-38.804 26.947-63.596 26.947s-48.505-9.701-64.674-26.947c-17.246-16.168-26.947-38.804-26.947-64.674 0-24.792 9.701-47.427 26.947-64.674 16.168-16.168 38.804-25.869 64.674-25.869h101.322v-1.078zM904.354 571.958v0h-784.707v-97.011c281.331 0 502.299 0 784.707 0v97.011z" />
<glyph unicode="&#xe622;" glyph-name="logout" d="M86.835 515.623c-12.868 0-23.108 10.206-23.108 22.835 0 12.356 10.24 22.289 23.108 22.289h356.898l-102.673 102.673c-8.602 8.875-8.602 23.347 0 31.71 8.875 9.421 23.654 9.421 32.222 0l141.346-140.288c2.423-3.209 4.301-6.451 5.393-9.933l0.512-0.546v-1.331l0.546-3.755v-2.15c0-1.058 0-2.15-0.546-3.755v-1.331l-0.512-0.273c-1.092-3.209-2.97-6.724-5.393-9.66h-0.512l-140.834-140.8c-8.602-9.148-23.347-9.148-32.222 0-8.602 8.602-8.602 23.108 0 31.983l102.639 102.4-356.864-0.068zM903.782 185.588v0l-235.93-135.953v653.005l273.545 158.037c18.261 10.206 24.201 33.314 13.687 51.337-6.724 11.844-18.807 18.534-31.437 18.807h-479.915c-12.902 0-23.108-9.933-23.108-22.835v-174.148c0-11.81 10.206-22.562 23.108-22.562 12.356 0 22.323 10.752 22.323 22.562v151.825h367.616l-219.034-127.113c-13.175-5.905-22.562-18.807-22.562-34.133v-533.402h-126.020v141.892c0 12.356-9.967 22.835-22.323 22.835-12.902 0-23.108-10.479-23.108-22.835v-164.489c0-12.356 10.206-23.074 23.108-23.074h148.343v-160.7c0-6.451 1.877-13.449 5.359-18.807 10.206-17.715 33.314-24.201 51.61-13.995l292.386 168.755c18.261 10.206 24.201 33.894 13.687 51.61-10.479 17.954-33.041 24.132-51.337 13.38v0z" />
<glyph unicode="&#xe623;" glyph-name="reset" d="M107.452 175.040c0 12.561 10.103 23.245 22.972 23.245 12.595 0 23.518-10.684 23.518-23.245v-53.623l45.978 26.795c10.923 6.007 25.156 2.731 31.164-8.499 6.554-11.23 2.731-25.19-8.192-31.471l-46.49-26.761 46.49-26.556c10.957-6.554 14.746-20.787 8.192-31.983-6.007-10.377-20.241-14.507-31.164-7.919l-45.978 26.487v-53.35c0-12.868-10.957-23.245-23.518-23.245-12.868 0-22.972 10.377-22.972 23.245v53.35l-46.49-26.522c-11.23-6.588-25.19-2.458-31.164 8.465-6.588 10.957-2.731 24.917 7.919 31.471l46.49 26.556-46.49 26.795c-10.684 6.554-14.507 20.241-7.919 31.744 6.007 10.923 20.241 14.199 31.164 8.226l46.49-26.829v53.623zM331.196 684.378v0 48.128c0 49.254 20.241 94.652 53.077 127.488s78.234 52.77 127.488 52.77v0c49.766 0 95.198-19.934 127.454-52.77l2.185-2.765c31.198-32.256 50.893-76.049 50.893-124.723v-47.855c13.653-4.642 25.702-12.049 35.533-21.641l2.731-3.277c14.746-15.565 23.245-36.625 23.245-59.631v-158.652c0-24.61-10.103-46.797-26.010-62.908-15.838-15.565-38.298-26.249-62.908-26.249h-306.381c-24.61 0-46.49 10.684-62.396 26.249h-0.444l-0.853 1.092c-15.565 16.145-25.429 37.751-25.429 61.815v158.652c0 24.61 10.377 46.524 26.283 62.908 10.103 9.591 21.879 16.998 35.533 21.367v0zM615.458 689.293v0 43.213c0 27.341-11.23 52.531-28.74 71.134l-1.638 1.638c-19.149 18.603-44.885 30.379-73.318 30.379v0c-28.467 0-54.443-11.776-73.318-30.379v0 0c-18.057-18.603-30.071-44.305-30.071-72.772v-43.213h207.087zM664.951 611.879v0h-306.347c-3.277 0-6.315-1.365-8.192-3.55-2.185-1.911-3.55-4.915-3.55-8.192v-158.652c0-3.277 1.365-6.281 3.55-8.192 1.911-2.185 4.915-3.55 8.192-3.55h306.381c3.277 0 6.007 1.365 8.499 3.55 1.911 2.185 3.004 4.915 3.004 8.192v158.652c0 3.311-0.819 5.495-2.185 7.1l-0.819 1.092c-2.526 2.185-5.257 3.55-8.533 3.55v0zM986.112 54.925v0c10.684-6.554 14.746-20.787 8.192-31.983-6.007-10.377-20.241-14.507-31.471-7.919l-46.49 26.522v-53.35c0-12.868-10.103-23.245-22.733-23.245-13.107 0-23.518 10.377-23.518 23.245v53.35l-45.978-26.522c-11.23-6.588-25.429-2.458-31.744 8.465-6.315 10.957-2.731 24.917 8.192 31.471l46.49 26.556-46.49 26.795c-10.957 6.554-14.746 20.241-8.192 31.744 6.315 10.923 20.514 14.199 31.744 8.226l45.978-26.795v53.623c0 12.561 10.377 23.245 23.518 23.245 12.595 0 22.733-10.684 22.733-23.245v-53.692l46.49 26.795c11.196 6.007 25.429 2.731 31.471-8.499 6.554-11.23 2.185-25.19-8.192-31.471l-46.49-26.795 46.49-26.522zM731.682 54.925v0c10.957-6.554 14.507-20.787 8.192-31.983-6.315-10.377-20.514-14.507-31.471-7.919l-46.49 26.522v-53.35c0-12.868-10.103-23.245-22.733-23.245-13.107 0-23.518 10.377-23.518 23.245v53.35l-46.217-26.522c-11.196-6.588-25.156-2.458-31.471 8.465-6.007 10.957-2.458 24.917 8.772 31.471l46.49 26.556-46.49 26.795c-11.23 6.554-14.78 20.241-8.772 31.744 6.554 10.923 20.787 14.199 31.471 8.226l46.217-26.283v53.077c0 12.561 10.411 23.245 23.518 23.245 12.595 0 22.733-10.684 22.733-23.245v-53.658l46.49 26.795c10.957 6.007 25.156 2.731 31.471-8.499s2.731-25.19-8.192-31.471l-46.49-26.795 46.49-26.522zM477.286 54.925v0c10.957-6.554 14.746-20.787 8.192-31.983-6.007-10.377-20.514-14.507-31.164-7.919l-46.49 26.522v-53.35c0-12.868-10.377-23.245-23.245-23.245-12.595 0-22.733 10.377-22.733 23.245v53.35l-46.49-26.522c-11.469-6.588-25.19-2.458-31.744 8.465-6.007 10.957-2.458 24.917 8.772 31.471l45.943 26.556-45.943 26.795c-11.23 6.554-14.78 20.241-8.772 31.744 6.554 10.923 20.241 14.199 31.744 8.226l46.49-26.283v53.077c0 12.561 10.103 23.245 22.733 23.245 12.868 0 23.245-10.684 23.245-23.245v-53.658l46.49 26.795c10.923 6.007 25.156 2.731 31.164-8.499 6.554-11.23 2.731-25.19-8.192-31.471l-46.797-26.795 46.797-26.522z" />
<glyph unicode="&#xe624;" glyph-name="nickname" d="M983.313 763.090h-337.749v125.201c0 13.38-10.581 23.177-23.689 23.177h-220.058c-13.107 0-23.415-9.762-23.415-23.177v-125.201h-338.022c-21.777 0-39.049-17.852-39.049-39.322v-717.858c0-21.47 17.271-39.595 39.049-39.595h942.933c22.016 0 39.322 18.125 39.322 39.595v717.858c0.034 21.47-17.271 39.322-39.322 39.322v0zM425.813 864.568v0h172.919v-101.513h-172.919v101.513zM276.343 715.917v0h471.313v-75.571h-471.313v75.571zM944.265 44.924v0h-864.563v639.522h149.777v-67.755c0-13.107 10.308-23.689 23.415-23.689h518.178c12.834 0 23.415 10.581 23.415 23.689v67.755h149.777v-639.522zM855.859 372.877v0h-243.2c-13.38 0-23.996-10.581-23.996-23.689 0-13.38 10.581-23.415 23.996-23.415h243.2c13.107 0 23.996 10.069 23.996 23.415 0 13.107-10.889 23.689-23.996 23.689v0zM855.859 268.873v0h-243.2c-13.38 0-23.996-10.069-23.996-23.177s10.581-23.996 23.996-23.996h243.2c13.107 0 23.996 10.889 23.996 23.996s-10.889 23.177-23.996 23.177v0zM588.663 453.227v0c0-13.38 10.581-23.689 23.996-23.689h243.2c13.107 0 23.996 10.308 23.996 23.689 0 13.107-10.889 23.177-23.996 23.177h-243.2c-13.38-0.034-23.996-10.069-23.996-23.177v0zM469.333 259.111v0c-11.742 11.435-25.668 21.197-41.028 27.341l-5.291 2.219 3.379 3.618c26.761 26.795 43.486 63.317 43.486 103.765 0 40.721-16.725 77.824-43.486 104.585-26.795 26.795-63.59 43.247-104.585 43.247-40.448 0-77.278-16.452-104.038-43.247-26.795-26.761-43.247-63.863-43.247-104.585 0-40.448 16.452-76.971 43.247-103.765l3.618-3.618c-17.579-6.383-33.485-16.452-46.592-29.559-11.162-11.435-20.89-25.395-27.341-40.994-6.144-15.087-9.489-30.959-9.489-48.538v-34.031c0-13.38 10.581-23.689 23.415-23.689h321.297c13.107 0 23.45 10.308 23.45 23.689v34.031c0 17.579-3.379 33.485-9.489 48.538-6.11 15.599-15.872 29.559-27.307 40.994v0zM251.221 467.734v0c17.852 18.125 43.213 28.74 70.554 28.74 28.16 0 52.975-10.581 71.1-28.74 18.398-18.432 29.559-43.793 29.559-71.68 0-27.034-11.162-52.429-29.559-70.281-38.775-39.322-102.639-39.322-141.687 0-18.432 17.852-29.559 43.247-29.559 70.281 0.034 27.887 11.196 53.248 29.594 71.68v0zM459.298 159.271v0h-273.886v10.308c0 11.162 1.946 21.743 5.564 30.413 3.925 9.762 9.762 18.671 17.306 25.941 14.507 14.234 34.031 22.869 55.774 22.869h116.019c11.127 0 21.197-1.98 30.106-6.144 9.489-3.618 18.432-9.182 25.668-16.725 7.27-7.27 13.107-16.179 17.271-25.941 3.925-8.67 6.144-19.251 6.144-30.413v-10.308h0.034z" />
<glyph unicode="&#xe625;" glyph-name="pig" d="M505.533 941.676c48.505 0 93.777-19.402 126.114-51.739l1.078-2.156c31.259-31.259 50.661-75.453 50.661-123.958v-6.467c7.545-2.156 14.013-4.312 21.558-7.545l118.568 68.985c19.402 11.857 43.116 5.389 54.973-14.013 4.312-8.623 6.467-19.402 4.312-28.025l-25.869-122.88c16.168-15.091 30.181-32.337 44.194-49.583 11.857-16.168 21.558-33.415 30.181-50.661h4.312c24.792 0 46.349-9.701 62.518-25.869 15.091-16.168 25.869-37.726 25.869-61.44v-119.646c0-23.714-9.701-46.349-25.869-61.44v0c-15.091-16.168-37.726-25.869-62.518-25.869h-4.312c-10.779-20.48-23.714-40.96-38.804-60.362-12.935-17.246-28.025-33.415-45.272-48.505l17.246-29.103 2.156-3.234c14.013-25.869 16.168-54.973 9.701-81.92-7.545-26.947-24.792-52.817-51.739-66.829l-2.156-1.078c-25.869-14.013-54.973-17.246-81.92-9.701v0c-28.025 7.545-51.739 24.792-67.907 50.661l-1.078 3.234-20.48 35.571c-15.091-4.312-31.259-7.545-47.427-9.701-26.947-4.312-54.973-6.467-80.842-6.467-26.947 0-53.895 2.156-80.842 6.467-16.168 2.156-31.259 5.389-46.349 9.701l-22.636-37.726c-15.091-26.947-39.882-44.194-66.829-50.661l-4.312-2.156c-26.947-6.467-56.051-3.234-81.92 11.857l-1.078 1.078c-25.869 15.091-43.116 39.882-50.661 66.829-7.545 28.025-4.312 57.128 10.779 84.076v1.078l18.324 29.103c-33.415 30.181-61.44 64.674-80.842 102.4-22.636 42.038-35.571 88.387-38.804 136.893l-5.389 2.156-1.078 1.078c-14.013 6.467-25.869 15.091-35.571 24.792-20.48 20.48-34.493 49.583-34.493 81.92 0 31.259 11.857 61.44 34.493 81.92 8.623 9.701 23.714 9.701 33.415 0 9.701-8.623 9.701-23.714 0-33.415-12.935-12.935-19.402-30.181-19.402-48.505s7.545-35.571 19.402-48.505c3.234-3.234 6.467-6.467 10.779-8.623 10.779 90.543 58.206 172.463 131.503 232.825 34.493 28.025 74.375 51.739 118.568 70.063-1.078 6.467-1.078 12.935-1.078 19.402 0 49.583 19.402 93.777 51.739 126.114v-2.156c31.259 32.337 75.453 51.739 125.036 51.739v0zM521.701 783.225v0c35.571 0 70.063-3.234 103.478-10.779l9.701-2.156c-2.156 33.415-15.091 62.518-36.648 84.076l-1.078 2.156c-23.714 23.714-56.051 37.726-91.621 37.726s-67.907-14.013-91.621-37.726c-23.714-23.714-37.726-57.128-37.726-91.621v-2.156c45.272 12.935 93.777 20.48 145.516 20.48v0zM610.088 693.76v0c-28.025 6.467-57.128 8.623-88.387 8.623-102.4 0-194.021-34.493-260.851-89.465-63.596-52.817-104.556-127.192-104.556-206.956 0-40.96 10.779-80.842 29.103-116.413 19.402-37.726 49.583-71.141 86.232-99.166 15.091-11.857 20.48-34.493 9.701-51.739l-33.415-56.051c-1.078-2.156-1.078-3.234-2.156-4.312-3.234-6.467-4.312-15.091-1.078-21.558 1.078-7.545 6.467-14.013 12.935-18.324l3.234-2.156c6.467-3.234 14.013-4.312 20.48-2.156h1.078c8.623 2.156 15.091 7.545 19.402 14.013l36.648 62.518c8.623 17.246 28.025 25.869 47.427 19.402 20.48-6.467 44.194-11.857 65.752-15.091s45.272-5.389 68.985-5.389c24.792 0 47.427 2.156 68.985 5.389 22.636 3.234 44.194 8.623 65.752 15.091 18.324 6.467 36.648-1.078 46.349-17.246l35.571-61.44c1.078-2.156 2.156-3.234 3.234-4.312 4.312-6.467 10.779-11.857 18.324-12.935 6.467-2.156 15.091-1.078 22.636 2.156l3.234 2.156c6.467 4.312 10.779 10.779 12.935 17.246s1.078 15.091-2.156 21.558c-1.078 2.156-2.156 3.234-3.234 4.312l-32.337 56.051c-9.701 17.246-5.389 39.882 9.701 51.739 22.636 17.246 42.038 36.648 58.206 57.128 16.168 19.402 28.025 40.96 37.726 63.596 5.389 15.091 20.48 26.947 37.726 26.947h30.181c2.156 0 4.312 1.078 5.389 2.156s2.156 3.234 2.156 5.389v122.88c0 2.156-1.078 4.312-2.156 5.389 1.078 1.078-1.078 2.156-3.234 2.156h-30.181c-16.168 0-31.259 8.623-36.648 24.792-8.623 20.48-19.402 39.882-32.337 58.206-14.013 18.324-29.103 35.571-46.349 50.661-11.857 8.623-17.246 23.714-14.013 38.804l11.857 57.128-56.051-33.415c-10.779-7.545-24.792-8.623-37.726-3.234-28.025 11.857-56.051 20.48-84.076 25.869v0zM757.76 546.088v0c-18.324 0-35.571-7.545-48.505-20.48-11.857-12.935-19.402-29.103-19.402-48.505s7.545-36.648 20.48-48.505v0c12.935-12.935 30.181-20.48 48.505-20.48 19.402 0 36.648 7.545 48.505 20.48 12.935 12.935 20.48 29.103 20.48 48.505 0 18.324-7.545 34.493-18.324 47.427l-2.156 2.156c-12.935 10.779-30.181 19.402-49.583 19.402v0zM772.851 491.116v0c-3.234 4.312-8.623 6.467-15.091 6.467-5.389 0-11.857-2.156-14.013-6.467-4.312-4.312-6.467-8.623-6.467-15.091s2.156-11.857 6.467-15.091c3.234-4.312 8.623-6.467 14.013-6.467 6.467 0 11.857 2.156 15.091 6.467 4.312 3.234 6.467 8.623 6.467 15.091s-2.156 10.779-6.467 15.091v0 0 0z" />
<glyph unicode="&#xe626;" glyph-name="round_up" d="M516 829.733c52 0 101.733-10.133 149.2-30.533s88.267-47.6 122.533-81.867 61.467-75.067 81.867-122.533 30.4-97.067 30.4-149.067-10.133-101.733-30.533-149.2-47.6-88.267-81.867-122.533-75.067-61.467-122.533-81.867-97.067-30.4-149.067-30.4-101.733 10.133-149.2 30.533-88.267 47.6-122.533 81.867-61.467 75.067-81.867 122.533-30.4 97.067-30.4 149.067 10.133 101.733 30.533 149.2 47.6 88.267 81.867 122.533 75.067 61.467 122.533 81.867 97.067 30.4 149.067 30.4zM516 744.4c-40.4 0-79.067-7.867-116-23.733s-68.667-37.067-95.333-63.733-47.867-58.4-63.733-95.333-23.733-75.6-23.733-116 7.867-79.067 23.733-116 37.067-68.667 63.733-95.333 58.4-47.867 95.333-63.733 75.6-23.733 116-23.733 79.067 7.867 116 23.733 68.667 37.067 95.333 63.733 47.867 58.4 63.733 95.333 23.733 75.6 23.733 116-7.867 79.067-23.733 116-37.067 68.667-63.733 95.333-58.4 47.867-95.333 63.733-75.6 23.733-116 23.733zM682.4 376.4c0-2.933-1.067-5.467-3.333-7.733l-16.667-16.667c-2.267-2.267-4.8-3.333-7.733-3.333s-5.467 1.067-7.733 3.333l-130.933 131.067-131.067-131.067c-2.267-2.267-4.8-3.333-7.733-3.333s-5.467 1.067-7.733 3.333l-16.667 16.667c-2.267 2.267-3.333 4.8-3.333 7.733s1.067 5.467 3.333 7.733l155.333 155.333c2.267 2.267 4.8 3.333 7.733 3.333s5.467-1.067 7.733-3.333l155.333-155.333c2.267-2.267 3.467-4.8 3.467-7.733z" />
<glyph unicode="&#xe627;" glyph-name="radio_2" d="M512 917.333c63.733 0 124.667-12.4 182.533-37.2s107.733-58.133 149.733-100 75.2-91.733 100-149.733 37.067-118.667 37.067-182.4-12.4-124.667-37.2-182.533-58.133-107.733-100-149.733-91.733-75.2-149.733-100-118.667-37.067-182.4-37.067-124.667 12.4-182.533 37.2-107.733 58.133-149.733 100-75.2 91.733-100 149.733-37.067 118.667-37.067 182.4 12.4 124.667 37.2 182.533 58.133 107.733 100 149.733 91.733 75.2 149.733 100 118.667 37.067 182.4 37.067zM512 832c-52 0-101.733-10.133-149.2-30.533s-88.267-47.6-122.533-81.867-61.467-75.067-81.867-122.533-30.4-97.067-30.4-149.067 10.133-101.733 30.533-149.2 47.6-88.267 81.867-122.533 75.067-61.467 122.533-81.867 97.067-30.4 149.067-30.4 101.733 10.133 149.2 30.533 88.267 47.6 122.533 81.867 61.467 75.067 81.867 122.533 30.4 97.067 30.4 149.067-10.133 101.733-30.533 149.2-47.6 88.267-81.867 122.533-75.067 61.467-122.533 81.867-97.067 30.4-149.067 30.4zM512 618.667c47.067 0 87.333-16.667 120.667-50s50-73.6 50-120.667-16.667-87.333-50-120.667-73.6-50-120.667-50-87.333 16.667-120.667 50-50 73.6-50 120.667 16.667 87.333 50 120.667 73.6 50 120.667 50z" />
<glyph unicode="&#xe628;" glyph-name="radio_1" d="M512 832q78 0 149.167-30.5t122.5-81.833 81.833-122.5 30.5-149.167-30.5-149.167-81.833-122.5-122.5-81.833-149.167-30.5-149.167 30.5-122.5 81.833-81.833 122.5-30.5 149.167 30.5 149.167 81.833 122.5 122.5 81.833 149.167 30.5zM512 746.667q-60.667 0-116-23.667t-95.333-63.667-63.667-95.333-23.667-116 23.667-116 63.667-95.333 95.333-63.667 116-23.667 116 23.667 95.333 63.667 63.667 95.333 23.667 116-23.667 116-63.667 95.333-95.333 63.667-116 23.667z" />
<glyph unicode="&#xe629;" glyph-name="card" d="M853.333 789.333h-682.667c-47.2 0-84.933-38.133-84.933-85.333l-0.4-512c0-47.2 38.133-85.333 85.333-85.333h682.667c47.2 0 85.333 38.133 85.333 85.333v512c0 47.2-38.133 85.333-85.333 85.333zM853.333 192h-682.667v256h682.667v-256zM853.333 618.667h-682.667v85.333h682.667v-85.333z" />
<glyph unicode="&#xe62a;" glyph-name="camera" d="M933 709.2h-165.8l-96.4 96.6c-0.2 0.2-0.2 0.2-0.4 0.4l-0.2 0.2c-14.2 14.2-34.2 23-56.2 23h-200.2c-23.2 0-44-10-58.8-26v0.2l-94.4-94.6h-169.2c-44.2 0-80.2-35.8-80.2-80.2v-480.8c0-44.2 35.8-80.2 80.2-80.2h841.6c44.2 0 80.2 35.8 80.2 80.2v481c0 44.2-36 80.2-80.2 80.2zM973 148.2c0-22-18-40-40-40h-841.6c-22 0-40 18-40 40v480.8c0 22.2 18 40 40 40h185.8l60.4 60.4 1-3 46 49.8c7.8 8.4 18.2 13 29.2 13h200.2c10.6 0 20.6-4.2 28.4-11.8l108.2-108.4h182.4c22 0 40-18 40-40v-480.8zM512.2 669c-143.8 0-260.4-116.6-260.4-260.4s116.6-260.6 260.4-260.6 260.4 116.6 260.4 260.6-116.6 260.4-260.4 260.4zM512.2 188.2c-121.6 0-220.4 98.8-220.4 220.4s98.8 220.4 220.4 220.4 220.4-98.8 220.4-220.4c0-121.4-98.8-220.4-220.4-220.4zM512.2 589c-99.6 0-180.4-80.6-180.4-180.2s80.8-180.4 180.4-180.4 180.4 80.8 180.4 180.4-80.8 180.2-180.4 180.2zM512.2 268.4c-77.4 0-140.2 63-140.2 140.2s63 140.2 140.2 140.2 140.2-62.8 140.2-140.2-62.8-140.2-140.2-140.2z" />
<glyph unicode="&#xe62b;" glyph-name="use_it" d="M808.96-40.107c-3.413-17.067-20.48-27.307-37.547-23.893s-27.307 20.48-23.893 37.547l40.96 157.013v327.68c0 13.653-6.827 20.48-17.067 23.893-3.413 0-6.827 3.413-13.653 3.413-3.413 0-10.24 0-13.653-3.413-6.827-3.413-13.653-10.24-17.067-23.893v0 0-37.547c0-17.067-13.653-30.72-34.133-30.72-17.067 0-30.72 13.653-30.72 30.72 0 27.307 0 58.027 0 85.333 0 13.653-6.827 20.48-13.653 23.893v0c-3.413 0-6.827 3.413-13.653 3.413-3.413 0-10.24 0-13.653-3.413-6.827-3.413-13.653-10.24-13.653-23.893v0-85.333c0-17.067-13.653-30.72-34.133-30.72-17.067 0-30.72 13.653-30.72 30.72 0 34.133 0 64.853 0 98.987 0 13.653-6.827 20.48-17.067 27.307-3.413 0-6.827 3.413-13.653 3.413-3.413 0-10.24 0-13.653-3.413-6.827-3.413-13.653-10.24-13.653-23.893v0 0-98.987c0-17.067-13.653-30.72-34.133-30.72-17.067 0-34.133 13.653-34.133 30.72 0 105.813 0 208.213 0 314.027 0 13.653-6.827 20.48-17.067 23.893-3.413 0-6.827 3.413-13.653 3.413-3.413 0-10.24 0-13.653-3.413-10.24-3.413-17.067-13.653-17.067-23.893 0-174.080 0-344.747 0-518.827 0-17.067-13.653-30.72-30.72-30.72s-34.133 13.653-34.133 30.72v139.947c0 13.653-6.827 20.48-17.067 23.893-3.413 0-6.827 3.413-13.653 3.413-3.413 0-10.24 0-13.653-3.413-10.24-3.413-17.067-13.653-17.067-23.893v-160.427c0-64.853 3.413-64.853 34.133-109.227l10.24-13.653 71.68-92.16c10.24-13.653 6.827-34.133-6.827-44.373s-34.133-6.827-44.373 6.827l-71.68 92.16-10.24 13.653c-44.373 58.027-47.787 64.853-47.787 150.187v160.427c0 44.373 23.893 71.68 54.613 85.333 10.24 3.413 23.893 6.827 37.547 6.827 10.24 0 20.48 0 27.307-3.413v286.72c0 44.373 23.893 71.68 58.027 85.333 10.24 3.413 23.893 6.827 37.547 6.827s23.893-3.413 37.547-6.827c30.72-13.653 58.027-40.96 58.027-85.333v-126.293c10.24 3.413 20.48 3.413 27.307 3.413 13.653 0 23.893-3.413 37.547-6.827s23.893-10.24 30.72-20.48c3.413 3.413 10.24 6.827 17.067 6.827 10.24 3.413 23.893 6.827 37.547 6.827s23.893-3.413 37.547-6.827c20.48-10.24 40.96-23.893 51.2-47.787 10.24 3.413 23.893 6.827 34.133 6.827 13.653 0 23.893-3.413 37.547-6.827 30.72-13.653 54.613-40.96 54.613-85.333v-331.093c0-3.413 0-6.827 0-6.827l-30.72-163.84zM245.76 690.347v0c6.827-17.067-3.413-34.133-20.48-40.96s-34.133 3.413-40.96 20.48c-6.827 20.48-10.24 44.373-10.24 68.267 0 122.88 98.987 221.867 218.453 221.867 122.88 0 221.867-98.987 221.867-221.867 0-23.893-3.413-44.373-10.24-68.267-6.827-13.653-23.893-23.893-40.96-17.067s-27.307 23.893-20.48 40.96c3.413 17.067 6.827 30.72 6.827 47.787 0 85.333-71.68 153.6-157.013 153.6s-153.6-71.68-153.6-157.013c0-13.653 0-30.72 6.827-47.787v0z" />
<glyph unicode="&#xe62c;" glyph-name="uninterference" d="M344.747 635.733v-375.467h3.413l262.827-201.387v781.653l-266.24-204.8zM928.427 953.173v0c10.24 10.24 23.893 10.24 34.133 0s10.24-23.893 0-34.133l-75.093-75.093 75.093-75.093c10.24-10.24 10.24-23.893 0-34.133s-23.893-10.24-34.133 0l-75.093 75.093-75.093-75.093c-10.24-10.24-23.893-10.24-34.133 0s-10.24 23.893 0 34.133l75.093 75.093-75.093 75.093c-10.24 10.24-10.24 23.893 0 34.133s23.893 10.24 34.133 0l75.093-75.093 75.093 75.093zM296.96 628.907v0h-160.427v-361.813h160.427v361.813zM307.2 707.413v0l317.44 242.347c6.827 6.827 13.653 10.24 23.893 10.24 20.48 0 40.96-17.067 40.96-37.547v-259.413c37.547-17.067 68.267-40.96 92.16-71.68 30.72-37.547 47.787-88.747 47.787-139.947 0-54.613-17.067-102.4-47.787-139.947-23.893-30.72-54.613-54.613-92.16-68.267v-262.827c0-10.24-3.413-17.067-6.827-23.893-13.653-17.067-37.547-20.48-54.613-6.827l-320.853 238.933h-208.213c-20.48 0-40.96 17.067-40.96 37.547v440.32c0 20.48 17.067 40.96 40.96 40.96h208.213zM689.493 608.427v0-317.44c20.48 10.24 40.96 27.307 54.613 47.787 23.893 30.72 37.547 68.267 37.547 112.64 0 40.96-13.653 81.92-37.547 112.64-13.653 13.653-34.133 30.72-54.613 44.373v0z" />
<glyph unicode="&#xe62d;" glyph-name="talk" d="M324.267 540.16c20.48 0 37.547-6.827 51.2-20.48s20.48-30.72 20.48-54.613c0-20.48-6.827-37.547-20.48-51.2s-30.72-23.893-51.2-23.893c-20.48 0-40.96 10.24-51.2 23.893-13.653 13.653-20.48 30.72-20.48 51.2s6.827 37.547 20.48 54.613c10.24 10.24 30.72 20.48 51.2 20.48v0zM512 908.8v0c139.947 0 266.24-47.787 358.4-129.707 95.573-81.92 153.6-191.147 153.6-317.44 0-122.88-58.027-235.52-153.6-317.44-92.16-78.507-218.453-129.707-358.4-129.707-40.96 0-81.92 3.413-122.88 13.653-34.133 6.827-64.853 17.067-98.987 30.72l-119.467-64.853c-13.653-6.827-23.893-10.24-37.547-6.827v0c-13.653 0-23.893 6.827-37.547 13.653-10.24 6.827-17.067 20.48-23.893 30.72v0c-3.413 13.653-6.827 27.307-3.413 37.547l30.72 129.707c-30.72 34.133-54.613 75.093-68.267 116.053-20.48 47.787-30.72 95.573-30.72 150.187 0 122.88 58.027 235.52 153.6 317.44 92.16 78.507 218.453 126.293 358.4 126.293v0zM819.2 721.067v0c-78.507 68.267-187.733 109.227-307.2 109.227s-228.693-40.96-307.2-109.227c-75.093-64.853-126.293-157.013-126.293-256 0-40.96 6.827-81.92 23.893-119.467s37.547-75.093 68.267-105.813c10.24-10.24 13.653-23.893 10.24-37.547l-30.72-126.293 122.88 64.853c10.24 6.827 23.893 6.827 34.133 0 30.72-13.653 64.853-27.307 98.987-34.133s68.267-10.24 105.813-10.24c119.467 0 228.693 40.96 307.2 109.227 78.507 64.853 122.88 157.013 122.88 256s-44.373 194.56-122.88 259.413v0zM341.333 482.133v0c-3.413 3.413-13.653 6.827-20.48 6.827s-13.653-3.413-20.48-6.827c-3.413-3.413-6.827-10.24-6.827-20.48 0-6.827 3.413-13.653 6.827-20.48s13.653-6.827 20.48-6.827c6.827 0 13.653 3.413 20.48 6.827 3.413 3.413 6.827 10.24 6.827 20.48 3.413 10.24 0 17.067-6.827 20.48v0zM512 540.16v0c20.48 0 37.547-6.827 51.2-20.48s20.48-30.72 20.48-54.613c0-20.48-6.827-37.547-20.48-51.2s-30.72-23.893-51.2-23.893c-20.48 0-40.96 10.24-54.613 23.893s-20.48 30.72-20.48 51.2c0 20.48 10.24 37.547 20.48 54.613 13.653 10.24 34.133 20.48 54.613 20.48v0zM532.48 482.133v0c-3.413 3.413-10.24 6.827-20.48 6.827-6.827 0-13.653-3.413-20.48-6.827-3.413-3.413-6.827-10.24-6.827-20.48 0-6.827 3.413-13.653 6.827-20.48s10.24-6.827 20.48-6.827c6.827 0 13.653 3.413 20.48 6.827 3.413 3.413 6.827 10.24 6.827 20.48s-3.413 17.067-6.827 20.48v0zM699.733 540.16v0c20.48 0 37.547-6.827 54.613-20.48 13.653-13.653 20.48-30.72 20.48-54.613 0-20.48-6.827-37.547-20.48-51.2s-30.72-23.893-54.613-23.893c-20.48 0-37.547 10.24-54.613 23.893-13.653 13.653-20.48 30.72-20.48 51.2s6.827 37.547 20.48 54.613c17.067 10.24 34.133 20.48 54.613 20.48v0zM720.213 482.133v0c-3.413 3.413-10.24 6.827-20.48 6.827-6.827 0-13.653-3.413-20.48-6.827-3.413-3.413-6.827-10.24-6.827-20.48 0-6.827 3.413-13.653 6.827-20.48s10.24-6.827 20.48-6.827c6.827 0 13.653 3.413 20.48 6.827 3.413 3.413 6.827 10.24 6.827 20.48s0 17.067-6.827 20.48v0z" />
<glyph unicode="&#xe62e;" glyph-name="bubble" d="M512 736c8.832 0 16-7.168 16-16s-7.2-16-16-16c-170.464 0-320-89.728-320-192 0-8.832-7.168-16-16-16s-16 7.168-16 16c0 121.408 161.184 224 352 224zM512 896c-282.784 0-512-171.936-512-384 0-132.064 88.928-248.512 224.256-317.632 0-0.864-0.256-1.44-0.256-2.368 0-57.376-42.848-119.136-61.696-151.552 0.032 0 0.064 0 0.064 0-1.504-3.52-2.368-7.392-2.368-11.456 0-16 12.96-28.992 28.992-28.992 3.008 0 8.288 0.8 8.16 0.448 100 16.384 194.208 108.256 216.096 134.88 31.968-4.704 64.928-7.328 98.752-7.328 282.72 0 512 171.936 512 384s-229.248 384-512 384zM512 192c-29.344 0-59.456 2.24-89.472 6.624-3.104 0.512-6.208 0.672-9.28 0.672-19.008 0-37.216-8.448-49.472-23.36-13.696-16.672-52.672-53.888-98.72-81.248 12.48 28.64 22.24 60.736 22.912 93.824 0.192 2.048 0.288 4.128 0.288 5.888 0 24.064-13.472 46.048-34.88 56.992-118.592 60.544-189.376 157.984-189.376 260.608 0 176.448 200.96 320 448 320 246.976 0 448-143.552 448-320s-200.992-320-448-320z" />
<glyph unicode="&#xe62f;" glyph-name="shield" d="M494.933-60.587c-139.947 61.44-259.413 170.667-341.333 303.787-78.507 129.707-126.293 290.133-126.293 457.387 0 37.547 3.413 75.093 6.827 116.053s10.24 78.507 20.48 112.64c6.827 17.067 20.48 30.72 40.96 30.72v0h836.267c20.48 0 37.547-13.653 40.96-34.133 10.24-34.133 17.067-71.68 20.48-109.227s6.827-78.507 6.827-116.053c0-170.667-47.787-327.68-126.293-457.387-81.92-136.533-201.387-242.347-341.333-303.787-13.653-3.413-27.307-3.413-37.547 0v0zM907.947 581.12v0l-634.88-368.64c64.853-81.92 146.773-146.773 238.933-191.147 119.467 58.027 218.453 150.187 290.133 266.24 54.613 85.333 88.747 184.32 105.813 293.547v0zM245.76 253.44v0l669.013 385.707c3.413 20.48 3.413 40.96 3.413 61.44 0 23.893 0 44.373-3.413 64.853l-727.040-416.427c10.24-20.48 20.48-40.96 34.133-61.44 6.827-13.653 13.653-23.893 23.893-34.133v0zM167.253 393.387v0l740.693 426.667c-3.413 20.48-6.827 37.547-10.24 58.027h-771.413c-6.827-23.893-10.24-47.787-13.653-71.68-3.413-34.133-6.827-68.267-6.827-105.813 0-109.227 23.893-215.040 61.44-307.2v0z" />
<glyph unicode="&#xe630;" glyph-name="share_friends" d="M812.373 290.987c47.787 0 92.16-20.48 126.293-51.2v0 0c30.72-30.72 51.2-78.507 51.2-126.293 0-98.987-81.92-177.493-177.493-177.493-98.987 0-177.493 81.92-177.493 177.493 0 20.48 3.413 40.96 10.24 58.027l-187.733 112.64c-3.413-3.413-6.827-6.827-10.24-10.24h-3.413c-44.373-44.373-102.4-68.267-170.667-68.267-133.12 0-242.347 109.227-242.347 242.347s109.227 242.347 242.347 242.347c68.267 0 126.293-27.307 170.667-71.68v0 0c3.413-3.413 6.827-6.827 10.24-10.24l187.733 112.64c-6.827 17.067-10.24 37.547-10.24 58.027 3.413 102.4 85.333 180.907 180.907 180.907 98.987 0 177.493-81.92 177.493-177.493 0-98.987-81.92-177.493-177.493-177.493-47.787 0-95.573 20.48-126.293 51.2v0l-187.733-112.64c13.653-27.307 20.48-61.44 20.48-95.573s-6.827-68.267-20.48-95.573l187.733-112.64c34.133 34.133 78.507 51.2 126.293 51.2v0zM884.053 185.173v0c-17.067 17.067-44.373 30.72-71.68 30.72s-51.2-10.24-71.68-27.307v0c-17.067-17.067-30.72-44.373-30.72-71.68 0-54.613 44.373-98.987 98.987-98.987s98.987 44.373 98.987 98.987c6.827 23.893-6.827 51.2-23.893 68.267v0 0zM392.533 564.053v0c-30.72 30.72-71.68 47.787-116.053 47.787-92.16 0-163.84-75.093-163.84-163.84s75.093-163.84 163.84-163.84c44.373 0 85.333 17.067 116.053 47.787v3.413c30.72 30.72 47.787 71.68 47.787 116.053 0 40.96-20.48 81.92-47.787 112.64v0 0zM812.373 881.493v0c-54.613 0-98.987-44.373-98.987-98.987 0-20.48 6.827-37.547 13.653-51.2v0 0c3.413-6.827 6.827-10.24 13.653-17.067h3.413c17.067-17.067 44.373-30.72 71.68-30.72 54.613 0 98.987 44.373 98.987 98.987s-47.787 98.987-102.4 98.987v0z" />
<glyph unicode="&#xe631;" glyph-name="scan" d="M945.493 212.48v0-197.973h-197.973c-20.48 0-40.96-17.067-40.96-40.96 0-20.48 17.067-40.96 40.96-40.96h235.52c20.48 0 37.547 17.067 37.547 40.96v235.52c0 20.48-17.067 37.547-37.547 37.547-20.48 3.413-37.547-13.653-37.547-34.133v0zM276.48 14.507v0h-197.973v197.973c0 20.48-17.067 37.547-37.547 37.547s-40.96-17.067-40.96-37.547v-235.52c0-23.893 17.067-40.96 40.96-40.96h235.52c20.48 0 40.96 17.067 40.96 40.96-3.413 20.48-20.48 37.547-40.96 37.547v0zM78.507 683.52v0 197.973h197.973c20.48 0 40.96 17.067 40.96 40.96-3.413 20.48-20.48 37.547-40.96 37.547h-235.52c-23.893 0-40.96-17.067-40.96-37.547v-235.52c0-20.48 17.067-40.96 40.96-40.96 20.48 0 37.547 17.067 37.547 37.547v0zM747.52 881.493v0h197.973v-197.973c0-20.48 17.067-40.96 40.96-40.96 20.48 0 37.547 17.067 37.547 40.96v235.52c0 23.893-17.067 40.96-37.547 40.96h-235.52c-20.48 0-40.96-17.067-40.96-40.96 0-20.48 17.067-37.547 37.547-37.547v0zM805.547 488.96v0h-587.093c-20.48 0-40.96-17.067-40.96-40.96 0-20.48 17.067-40.96 40.96-40.96h587.093c20.48 0 40.96 17.067 40.96 40.96 0 20.48-20.48 40.96-40.96 40.96v0z" />
<glyph unicode="&#xe632;" glyph-name="others" d="M890.88 198.827c37.547 0 68.267-13.653 92.16-37.547v-3.413c23.893-23.893 37.547-54.613 37.547-92.16 0-34.133-13.653-68.267-37.547-92.16s-58.027-37.547-92.16-37.547c-37.547 0-68.267 13.653-92.16 37.547v0c-23.893 23.893-37.547 58.027-37.547 92.16 0 37.547 13.653 68.267 37.547 92.16 23.893 27.307 58.027 40.96 92.16 40.96v0zM133.12 960v0c37.547 0 68.267-13.653 92.16-37.547v-3.413c23.893-23.893 37.547-54.613 37.547-92.16s-13.653-68.267-37.547-92.16c-23.893-23.893-58.027-37.547-92.16-37.547-37.547 0-68.267 13.653-92.16 37.547-27.307 23.893-40.96 58.027-40.96 92.16 0 37.547 13.653 68.267 37.547 92.16 23.893 27.307 58.027 40.96 95.573 40.96v0zM184.32 881.493v0c-13.653 13.653-30.72 20.48-51.2 20.48s-37.547-6.827-54.613-23.893c-13.653-10.24-20.48-27.307-20.48-51.2 0-20.48 6.827-40.96 20.48-54.613 13.653-10.24 34.133-17.067 54.613-17.067s37.547 6.827 51.2 20.48c13.653 13.653 23.893 30.72 23.893 51.2s-10.24 40.96-23.893 54.613v0 0zM133.12 581.12v0c37.547 0 68.267-13.653 92.16-37.547v0c23.893-27.307 37.547-61.44 37.547-95.573 0-37.547-13.653-68.267-37.547-92.16s-58.027-37.547-92.16-37.547c-37.547 0-68.267 13.653-92.16 37.547v0c-27.307 23.893-40.96 54.613-40.96 92.16s13.653 68.267 37.547 92.16c23.893 23.893 58.027 40.96 95.573 40.96v0zM184.32 502.613v0c-13.653 13.653-30.72 20.48-51.2 20.48s-37.547-6.827-54.613-20.48c-13.653-13.653-20.48-30.72-20.48-54.613 0-20.48 6.827-37.547 20.48-54.613v0c13.653-13.653 30.72-20.48 54.613-20.48 20.48 0 37.547 6.827 51.2 20.48s23.893 30.72 23.893 54.613c0 20.48-10.24 37.547-23.893 54.613v0 0zM133.12 198.827v0c37.547 0 68.267-13.653 92.16-37.547v-3.413c23.893-23.893 37.547-54.613 37.547-92.16 0-34.133-13.653-68.267-37.547-92.16s-58.027-37.547-92.16-37.547c-37.547 0-68.267 13.653-92.16 37.547v0c-27.307 23.893-40.96 58.027-40.96 95.573s13.653 68.267 37.547 92.16c23.893 23.893 58.027 37.547 95.573 37.547v0zM184.32 120.32v0c-13.653 13.653-30.72 20.48-51.2 20.48s-37.547-10.24-54.613-20.48c-13.653-13.653-20.48-30.72-20.48-54.613 0-20.48 6.827-37.547 20.48-51.2v0c13.653-13.653 30.72-20.48 54.613-20.48 20.48 0 37.547 6.827 51.2 20.48s23.893 30.72 23.893 51.2c0 20.48-10.24 40.96-23.893 54.613v0 0zM512 960v0c37.547 0 68.267-13.653 92.16-37.547v-3.413c23.893-23.893 37.547-54.613 37.547-92.16s-13.653-68.267-37.547-92.16c-23.893-23.893-54.613-37.547-92.16-37.547s-68.267 13.653-92.16 37.547c-23.893 23.893-37.547 58.027-37.547 92.16 0 37.547 13.653 68.267 37.547 92.16 23.893 27.307 54.613 40.96 92.16 40.96v0zM566.613 881.493v0c-13.653 13.653-30.72 23.893-54.613 23.893-20.48 0-40.96-6.827-54.613-23.893-13.653-13.653-20.48-30.72-20.48-51.2s6.827-40.96 20.48-54.613c13.653-13.653 34.133-20.48 54.613-20.48s37.547 6.827 54.613 20.48c13.653 13.653 20.48 30.72 20.48 51.2s-6.827 40.96-20.48 54.613v0 0zM512 581.12v0c37.547 0 68.267-13.653 92.16-37.547v0c23.893-23.893 37.547-54.613 37.547-92.16s-13.653-68.267-37.547-92.16c-23.893-23.893-58.027-37.547-92.16-37.547-37.547 0-68.267 13.653-92.16 37.547v0c-23.893 23.893-37.547 58.027-37.547 92.16s13.653 68.267 37.547 92.16c23.893 20.48 54.613 37.547 92.16 37.547v0zM566.613 502.613v0c-13.653 13.653-30.72 20.48-54.613 20.48-20.48 0-40.96-6.827-54.613-20.48s-20.48-30.72-20.48-54.613c0-20.48 6.827-37.547 20.48-54.613v0c13.653-13.653 30.72-20.48 54.613-20.48 20.48 0 37.547 6.827 54.613 20.48 13.653 13.653 20.48 30.72 20.48 54.613 0 20.48-6.827 37.547-20.48 54.613v0 0zM512 198.827v0c37.547 0 68.267-13.653 92.16-37.547v-3.413c23.893-23.893 37.547-54.613 37.547-92.16 0-34.133-13.653-68.267-37.547-92.16s-54.613-37.547-92.16-37.547c-37.547 0-68.267 13.653-92.16 37.547v0c-23.893 23.893-37.547 58.027-37.547 92.16 0 37.547 13.653 68.267 37.547 92.16 23.893 27.307 54.613 40.96 92.16 40.96v0zM566.613 120.32v0c-13.653 13.653-30.72 20.48-54.613 20.48-20.48 0-40.96-10.24-54.613-20.48-13.653-13.653-20.48-30.72-20.48-54.613 0-20.48 6.827-37.547 20.48-51.2v0c13.653-13.653 30.72-20.48 54.613-20.48 20.48 0 37.547 6.827 54.613 20.48 13.653 13.653 20.48 30.72 20.48 51.2s-6.827 40.96-20.48 54.613v0 0zM890.88 960v0c37.547 0 68.267-13.653 92.16-37.547v-3.413c27.307-23.893 40.96-54.613 40.96-92.16s-13.653-68.267-37.547-92.16c-23.893-23.893-58.027-37.547-92.16-37.547-37.547 0-68.267 13.653-92.16 37.547s-37.547 58.027-37.547 92.16c0 37.547 13.653 68.267 37.547 92.16s54.613 40.96 88.747 40.96v0zM945.493 881.493v0c-13.653 13.653-30.72 23.893-51.2 23.893s-37.547-6.827-51.2-23.893c-17.067-13.653-23.893-30.72-23.893-54.613 0-20.48 6.827-40.96 20.48-54.613 13.653-10.24 30.72-17.067 51.2-17.067s37.547 6.827 51.2 20.48c13.653 13.653 23.893 30.72 23.893 54.613 0 17.067-6.827 37.547-20.48 51.2v0 0zM890.88 581.12v0c37.547 0 68.267-13.653 92.16-37.547v0c27.307-27.307 40.96-61.44 40.96-95.573 0-37.547-13.653-68.267-37.547-92.16s-58.027-37.547-92.16-37.547c-37.547 0-68.267 13.653-92.16 37.547v0c-23.893 23.893-37.547 58.027-37.547 92.16s13.653 68.267 37.547 92.16c20.48 23.893 54.613 40.96 88.747 40.96v0zM945.493 502.613v0c-13.653 13.653-30.72 20.48-51.2 20.48s-37.547-6.827-51.2-20.48c-17.067-13.653-23.893-34.133-23.893-54.613s6.827-37.547 20.48-54.613v0c13.653-13.653 30.72-20.48 51.2-20.48s37.547 6.827 51.2 20.48c13.653 13.653 23.893 30.72 23.893 54.613 0 20.48-6.827 37.547-20.48 54.613v0 0zM945.493 120.32v0c-13.653 13.653-30.72 20.48-51.2 20.48s-37.547-10.24-51.2-20.48c-17.067-13.653-23.893-30.72-23.893-51.2s6.827-37.547 20.48-51.2v0c13.653-13.653 30.72-20.48 51.2-20.48s37.547 6.827 51.2 20.48c13.653 13.653 23.893 30.72 23.893 51.2 0 17.067-6.827 37.547-20.48 51.2v0 0z" />
<glyph unicode="&#xe633;" glyph-name="order_test" d="M645.12 492.373c27.307-30.72 51.2-64.853 64.853-102.4s23.893-78.507 23.893-122.88c0-92.16-37.547-174.080-95.573-235.52-6.827-6.827-13.653-13.653-20.48-17.067h262.827c20.48 0 40.96-17.067 40.96-40.96 0-20.48-17.067-37.547-40.96-37.547-245.76 0-488.107 0-733.867 0-20.48 0-40.96 17.067-40.96 37.547 0 23.893 17.067 40.96 40.96 40.96h256c68.267 0 133.12 27.307 177.493 75.093 6.827 6.827 13.653 13.653 17.067 20.48h-433.493c-13.653 0-23.893 10.24-23.893 23.893s10.24 23.893 23.893 23.893h464.213c17.067 34.133 23.893 71.68 23.893 109.227 0 34.133-6.827 64.853-17.067 95.573-10.24 27.307-23.893 47.787-40.96 68.267-17.067-10.24-34.133-13.653-51.2-13.653-10.24 0-20.48 3.413-34.133 3.413l-58.027-102.4c-6.827-10.24-20.48-17.067-30.72-10.24l-23.893 13.653-20.48-37.547c-6.827-10.24-20.48-13.653-30.72-6.827l-95.573 54.613c-10.24 6.827-17.067 20.48-10.24 30.72l20.48 37.547-23.893 13.653c-10.24 6.827-13.653 20.48-6.827 30.72l211.627 368.64c6.827 10.24 20.48 13.653 30.72 6.827v0l20.48-13.653 34.133 61.44-23.893 13.653c-17.067 10.24-23.893 34.133-13.653 54.613 10.24 17.067 34.133 23.893 54.613 13.653 61.44-34.133 122.88-71.68 184.32-105.813 17.067-10.24 23.893-34.133 13.653-54.613-10.24-17.067-34.133-23.893-54.613-13.653l-23.893 13.653-34.133-61.44 27.307-6.827c10.24-6.827 13.653-20.48 6.827-30.72l-47.787-88.747c20.48-20.48 34.133-47.787 34.133-78.507 0-10.24-3.413-20.48-3.413-30.72v0zM624.64 816.64v0c-17.067 10.24-37.547 20.48-54.613 30.72l-34.133-61.44 54.613-30.72 34.133 61.44zM573.44 625.493v0l37.547 64.853c-47.787 27.307-95.573 54.613-139.947 81.92l-191.147-327.68c47.787-27.307 95.573-54.613 139.947-81.92l47.787 81.92c-20.48 20.48-34.133 47.787-34.133 78.507s13.653 58.027 30.72 75.093v0c30.72 30.72 68.267 37.547 109.227 27.307v0zM583.68 567.467v0c-23.893 23.893-61.44 23.893-85.333 0v0 0c-10.24-10.24-17.067-27.307-17.067-40.96 0-34.133 27.307-61.44 61.44-61.44 17.067 0 30.72 6.827 40.96 17.067v0c10.24 10.24 17.067 27.307 17.067 40.96 0 17.067-6.827 30.72-17.067 44.373v0 0zM300.373 379.733v0l-10.24-17.067 54.613-30.72 10.24 17.067-54.613 30.72z" />
<glyph unicode="&#xe634;" glyph-name="order_buy" d="M727.040 550.4c10.24-3.413 23.893-10.24 30.72-20.48 13.653-13.653 23.893-34.133 23.893-54.613s-6.827-40.96-23.893-54.613c-13.653-13.653-34.133-23.893-54.613-23.893s-40.96 6.827-54.613 23.893l-3.413 3.413c-13.653 13.653-20.48 30.72-20.48 51.2s10.24 40.96 23.893 54.613v3.413c6.827 6.827 17.067 13.653 30.72 17.067v75.093h-331.093v-75.093c10.24-3.413 20.48-10.24 30.72-20.48 13.653-13.653 23.893-34.133 23.893-54.613s-10.24-40.96-23.893-54.613v0c-13.653-13.653-34.133-23.893-54.613-23.893s-40.96 6.827-54.613 23.893v3.413c-13.653 13.653-20.48 30.72-20.48 51.2s10.24 40.96 23.893 54.613v3.413c6.827 6.827 17.067 13.653 30.72 17.067v75.093h-122.88v-607.573h658.773v607.573h-116.053v-75.093h3.413zM679.253 704v0 40.96c0 44.373-17.067 85.333-47.787 116.053v0c-30.72 30.72-71.68 47.787-116.053 47.787s-88.747-17.067-116.053-47.787v0c-30.72-30.72-47.787-71.68-47.787-116.053v-40.96h327.68zM296.96 704v0 40.96c0 58.027 23.893 112.64 61.44 150.187 40.96 40.96 95.573 64.853 153.6 64.853s112.64-23.893 150.187-61.44v0c37.547-37.547 61.44-92.16 61.44-150.187v-40.96h157.013c23.893-3.413 40.96-20.48 40.96-40.96v0-689.493c0-20.48-17.067-40.96-40.96-40.96v0h-737.28c-23.893 0-40.96 17.067-40.96 40.96v0 689.493c0 20.48 17.067 37.547 40.96 37.547v0h153.6zM324.267 506.027v0 0 0c-10.24 0-17.067-3.413-20.48-6.827v-3.413c-3.413-3.413-6.827-10.24-6.827-20.48 0-6.827 3.413-13.653 6.827-20.48v0c3.413-6.827 10.24-6.827 17.067-6.827s17.067 3.413 20.48 6.827v0c3.413 6.827 6.827 13.653 6.827 20.48 0 10.24-3.413 17.067-6.827 20.48v0 0c-3.413 6.827-10.24 10.24-17.067 10.24v0zM703.147 506.027v0 0 0c-10.24 0-17.067-3.413-20.48-6.827v-3.413c-6.827-3.413-10.24-10.24-10.24-20.48 0-6.827 3.413-13.653 6.827-20.48v0c3.413-6.827 13.653-6.827 20.48-6.827s17.067 3.413 20.48 6.827v0c6.827 6.827 6.827 13.653 6.827 20.48 0 10.24-3.413 17.067-6.827 20.48-3.413 6.827-10.24 10.24-17.067 10.24v0z" />
<glyph unicode="&#xe635;" glyph-name="mail_2" d="M40.96 847.36v0h945.493c20.48 0 40.96-17.067 40.96-40.96v0-720.213c0-20.48-17.067-40.96-40.96-40.96v0h-945.493c-20.48 0-40.96 17.067-40.96 40.96v0 723.627c0 20.48 17.067 37.547 40.96 37.547v0zM945.493 734.72v0l-416.427-416.427c-10.24-10.24-23.893-10.24-34.133 0l-416.427 416.427v-607.573h866.987v607.573zM911.36 768.853v0h-798.72l399.36-399.36 399.36 399.36z" />
</font>
</defs>
</svg>
